<svg xmlns="http://www.w3.org/2000/svg" width="26.004" height="29.979" viewBox="0 0 26.004 29.979">
  <g id="Group_305" data-name="Group 305" transform="translate(-1839.5 -51)">
    <path id="Path_22" data-name="Path 22" d="M1552.4-7184.419h.152l.075.025.076.025.076.025.051.026.076.025.076.052.051.025.076.051.051.051.076.05.05.052.051.05.051.051.051.077.05.05.051.077.026.05.051.078.025.075.051.078.025.075.026.076.025.1.026.077v.076l.025.1v.076l.025.1v.075l.76,17.738-.026.076v.178l-.025.1v.075l-.026.1-.025.077-.026.076-.025.075-.051.077-.025.076-.051.076-.026.077-.051.051-.051.077-.05.051-.051.048-.051.078-.051.05-.076.051-.05.025-.076.05-.051.051-.076.027-.077.025-.05.025-.076.025-.076.026-.076.025h-.152l-.076.027h-21.96l-.076-.027h-.152l-.076-.025-.076-.026-.076-.025-.076-.025-.051-.025-.076-.027-.05-.051-.077-.05-.05-.025-.076-.051-.05-.05-.051-.078-.051-.048-.051-.051-.051-.077-.051-.051-.051-.077-.025-.076-.05-.076-.025-.077-.026-.075-.025-.076-.026-.077-.025-.1-.026-.075v-.179l-.025-.1v-.076l.76-17.738v-.178l.025-.076v-.1l.026-.076.025-.077.025-.1.025-.076.026-.075.025-.078.051-.075.025-.078.051-.05.051-.077.05-.05.05-.077.051-.051.05-.05.051-.052.05-.05.076-.051.05-.051.076-.025.076-.052.051-.025.076-.026.076-.025.076-.025.076-.025h20.668Zm-20.491,1.092h-.076v.026h-.051l-.025.025h-.026l-.025.025h0l-.026.025-.025.026v.025h-.026l-.025.027v.025l-.025.025-.026.025v.051l-.025.027v.023l-.026.027v.076l-.025.05v.2l-.76,17.687v.152l.025.051v.026l.025.05v.051l.025.051.025.026v.024l.025.027v.025l.026.026.025.025h.025v.025l.026.025h.025v.027h.025l.025.025h.025l.026.025h22.061l.026-.025h.025l.026-.025h0l.025-.027h.025v-.025l.025-.025h.026l.025-.025v-.026l.025-.025.026-.027v-.024l.025-.026v-.051l.025-.025v-.026l.025-.05v-.077l.025-.026v-.126l-.76-17.687v-.177l-.026-.027v-.075l-.025-.051v-.027l-.026-.023v-.027l-.025-.051v-.025l-.025-.025-.025-.025v-.027h-.025l-.026-.025v-.026l-.025-.025h-.026v-.025h-.05v-.025h-.051l-.026-.026H1531.9Z" transform="translate(310.4 7243.628)" stroke="#000" stroke-miterlimit="10" stroke-width="1" fill-rule="evenodd"/>
    <path id="Path_23" data-name="Path 23" d="M1531.99-7180.145a6.73,6.73,0,0,1,6.484-6.966,6.713,6.713,0,0,1,6.484,6.966" transform="translate(313.954 7239.11)" fill="none" stroke="#000" stroke-miterlimit="10" stroke-width="2"/>
  </g>
</svg>
