<?xml version="1.0" encoding="UTF-8" standalone="no"?>
<!DOCTYPE svg PUBLIC "-//W3C//DTD SVG 1.1//EN" "http://www.w3.org/Graphics/SVG/1.1/DTD/svg11.dtd">
<svg width="100%" height="100%" viewBox="0 0 156 156" version="1.1" xmlns="http://www.w3.org/2000/svg" xmlns:xlink="http://www.w3.org/1999/xlink" xml:space="preserve" xmlns:serif="http://www.serif.com/" style="fill-rule:evenodd;clip-rule:evenodd;stroke-miterlimit:10;">
    <g transform="matrix(4.23073,0,0,4.23073,-10829.6,33.0682)">
        <g id="Rounded-Rectangle-1-copy" serif:id="Rounded Rectangle 1 copy" transform="matrix(-1,-1.22465e-16,1.22465e-16,-1,5156.76,81.376)">
            <path d="M2563.41,84.696L2577.09,69.853C2577.87,69.072 2579.13,69.072 2579.91,69.853L2593.76,84.702" style="fill:none;stroke:black;stroke-width:1.42px;"/>
        </g>
        <g transform="matrix(3.13366,0,0,3.45036,342.604,-622.714)">
            <path d="M718.741,180.389C718.741,179.793 718.208,179.31 717.552,179.31L709.222,179.31C708.566,179.31 708.034,179.793 708.034,180.389L708.034,186.77C708.034,187.365 708.566,187.849 709.222,187.849L717.552,187.849C718.208,187.849 718.741,187.365 718.741,186.77L718.741,180.389Z" style="fill:none;stroke:black;stroke-width:0.43px;stroke-linecap:round;stroke-linejoin:round;stroke-miterlimit:1.5;"/>
        </g>
    </g>
</svg>
