<svg xmlns="http://www.w3.org/2000/svg" width="22.645" height="20.757" viewBox="0 0 22.645 20.757"><defs><style>.a{fill:#959595;}</style></defs><path class="a" d="M16.417,0a6.239,6.239,0,0,0-5.1,2.652A6.239,6.239,0,0,0,6.227,0,6.593,6.593,0,0,0,0,6.6c0,3.429,1.936,6.96,5.6,10.213a30.123,30.123,0,0,0,5.55,3.9.378.378,0,0,0,.346,0,30.124,30.124,0,0,0,5.548-3.9c3.665-3.253,5.6-6.784,5.6-10.213A6.593,6.593,0,0,0,16.417,0Zm-5.1,19.951C9.936,19.186.755,13.842.755,6.6A5.819,5.819,0,0,1,6.227.755a5.483,5.483,0,0,1,4.766,2.789.393.393,0,0,0,.658,0A5.483,5.483,0,0,1,16.417.755,5.819,5.819,0,0,1,21.89,6.6C21.89,13.842,12.708,19.186,11.322,19.951Zm0,0"/></svg>