<svg xmlns="http://www.w3.org/2000/svg" width="32.677" height="30.035" viewBox="0 0 32.677 30.035"><defs><style>.a{stroke:#000;stroke-width:0.9px;}</style></defs><path class="a" d="M23.038,0a8.755,8.755,0,0,0-7.15,3.722A8.755,8.755,0,0,0,8.739,0C4.083,0,0,4.331,0,9.268,0,14.08,2.717,19.035,7.857,23.6a42.271,42.271,0,0,0,7.788,5.47.531.531,0,0,0,.486,0,42.273,42.273,0,0,0,7.785-5.47c5.143-4.564,7.86-9.52,7.86-14.331C31.777,4.331,27.693,0,23.038,0Zm-7.15,28C13.943,26.923,1.059,19.424,1.059,9.268c0-4.373,3.588-8.209,7.679-8.209a7.7,7.7,0,0,1,6.688,3.914.552.552,0,0,0,.923,0,7.7,7.7,0,0,1,6.688-3.914c4.091,0,7.679,3.836,7.679,8.209C30.718,19.424,17.834,26.923,15.888,28Zm0,0" transform="translate(0.45 0.45)"/></svg>