<svg xmlns="http://www.w3.org/2000/svg" xmlns:xlink="http://www.w3.org/1999/xlink" width="88.957" height="79.91" viewBox="0 0 88.957 79.91"><defs><style>.a{fill:#fff;stroke:#707070;}.b{clip-path:url(#a);}.c{fill:#bbd5df;}.c,.d,.e,.f,.g,.h,.i,.j{fill-rule:evenodd;}.e,.g,.h,.i,.j{fill:none;}.e,.g,.h,.i{stroke:#000;stroke-miterlimit:10;}.e{stroke-width:0.075px;}.f{fill:#ff93b5;}.g{stroke-width:0.083px;}.h{stroke-width:0.076px;}.i{stroke-width:0.177px;}.j{stroke:#fff;stroke-linecap:round;stroke-linejoin:round;stroke-miterlimit:1.5;stroke-width:0.473px;}</style><clipPath id="a"><rect class="a" width="88.957" height="79.91" transform="translate(0 -0.213)"/></clipPath></defs><g class="b" transform="translate(0 0.213)"><g transform="translate(0 5.89)"><g transform="translate(0 19.247)"><g transform="translate(8.226 4.771)"><path d="M340.024,1789.228a7.526,7.526,0,0,0-6.7,0,5.644,5.644,0,0,0-2.271,2.2,6.475,6.475,0,0,0-.811,3.242,6.56,6.56,0,0,0,.811,3.267,5.65,5.65,0,0,0,2.271,2.224,7.5,7.5,0,0,0,6.7,0,5.65,5.65,0,0,0,2.271-2.224,6.559,6.559,0,0,0,.811-3.267,6.475,6.475,0,0,0-.811-3.242A5.644,5.644,0,0,0,340.024,1789.228Zm-6.047,2.6a3.55,3.55,0,0,1,2.711-1.112,3.619,3.619,0,0,1,2.711,1.112,4.12,4.12,0,0,1,1.043,2.9,4.077,4.077,0,0,1-1.043,2.895,3.859,3.859,0,0,1-5.421,0,3.993,3.993,0,0,1-1.065-2.895A4.035,4.035,0,0,1,333.977,1791.824Z" transform="translate(-330.247 -1788.443)"/></g><g transform="translate(0 0.973)"><path d="M30.6,126.123v1.648H20.843V111.553h2.734v13.739H29.9A5.54,5.54,0,0,0,30.6,126.123Z" transform="translate(-20.843 -111.553)"/></g><path d="M360,1788.682l4.772,12.326h2.757l4.726-12.326h-2.664l-3.383,9.709-3.428-9.709Z" transform="translate(-340.646 -1783.821)"/><path d="M398.448,1790.086a5.58,5.58,0,0,0-4.379-1.644,6.453,6.453,0,0,0-3.22.785,5.714,5.714,0,0,0-2.224,2.227,6.55,6.55,0,0,0-.787,3.267,6.465,6.465,0,0,0,.787,3.242,5.644,5.644,0,0,0,2.224,2.2,6.6,6.6,0,0,0,3.29.789,7.2,7.2,0,0,0,2.873-.556,6.185,6.185,0,0,0,2.224-1.529l-1.413-1.5a4.62,4.62,0,0,1-1.575,1.063,4.753,4.753,0,0,1-1.9.372,3.773,3.773,0,0,1-2.479-.834,3.838,3.838,0,0,1-1.344-2.248h9.313c.023-.462.046-.785.046-.994A6.853,6.853,0,0,0,398.448,1790.086Zm-.927,3.684h-7.043a3.673,3.673,0,0,1,1.181-2.339,3.5,3.5,0,0,1,2.433-.858,3.427,3.427,0,0,1,2.433.858A3.217,3.217,0,0,1,397.521,1793.77Z" transform="translate(-357.994 -1783.671)"/><g transform="translate(52.968 0)"><path d="M163.587,115.968a4.576,4.576,0,0,1,1.784-1.668,5.48,5.48,0,0,1,2.525-.556,5.925,5.925,0,0,1,3.081.788,5.464,5.464,0,0,1,2.062,2.224l.007.013,0,0,.005.01,0,0,.007.014h0l.006.012,0,0,.005.01,0,0,.007.013v0l.006.011,0,0,.005.011,0,0,.007.014v0l.005.011,0,0,.005.011v0l.006.014,0,0,0,.01,0,0,.005.011v0l.006.014,0,0,0,.01,0,0,.006.012v0l.006.014,0,0,0,.01,0,0,.006.014h0l.005.013,0,0,0,.01,0,0,.006.014v0l.005.012,0,0,0,.011v0l.006.014v0l.005.012,0,0,.005.013v0l.006.015h0l.006.014v0l.013.031a6.607,6.607,0,0,0-.551,2.726,6.708,6.708,0,0,0,.578,2.807l-.013.032h0l-.006.015h0l-.007.016-.006.015v0l-.006.015h0l-.006.015v0l-.006.013v0l-.006.015-.006.015v0l-.006.012v0l-.006.014v0l-.005.012,0,0-.006.014-.006.014,0,0-.005.011v0l-.007.014v0l-.005.012,0,0-.006.013v0l-.007.014,0,0-.005.011,0,0-.007.014v0l-.006.012,0,0-.006.012v0l-.007.014,0,0-.005.011,0,0-.007.014h0l-.006.013,0,0-.006.011v0l-.007.014,0,0-.006.011,0,0-.007.014A5.2,5.2,0,0,1,171,125.467a5.394,5.394,0,0,1-2.016.713l-.01,0-.013,0-.139.019-.013,0-.013,0q-.114.014-.231.024h-.053q-.111.009-.225.014h-.025l-.093,0-.188,0h-.041q-.251,0-.491-.017l-.022,0-.035,0-.1-.008-.127-.013-.021,0h0a4.985,4.985,0,0,1-1.775-.534,4.356,4.356,0,0,1-1.784-1.645v2.131h-2.664V108.971h2.664Zm7.345,2.734a4.3,4.3,0,0,0-.3-.788,3.648,3.648,0,0,0-1.344-1.436,3.97,3.97,0,0,0-3.892,0,3.377,3.377,0,0,0-1.321,1.413,4.367,4.367,0,0,0-.487,2.062q0,.063,0,.125v.018q0,.151.015.3c0,.023,0,.046.006.069l0,.039q0,.047.01.094.014.119.034.234.01.061.022.121l0,.012.008.041,0,.008,0,.012,0,.012,0,.012,0,.01a3.672,3.672,0,0,0,.951,1.791,3.468,3.468,0,0,0,2.688,1.135,3.7,3.7,0,0,0,1.946-.51,3.5,3.5,0,0,0,1.344-1.436,4.75,4.75,0,0,0,.463-2.085v-.024q0-.19-.015-.372-.007-.09-.017-.177l0-.017v-.012l0-.039q-.015-.118-.036-.233l0-.013,0-.015L171,119l0-.01,0-.016,0-.012,0-.023q-.012-.056-.026-.112C170.954,118.782,170.943,118.742,170.932,118.7Z" transform="translate(-160.923 -108.971)"/></g><g transform="translate(65.166 4.771)"><path d="M490.236,1789.228a7.527,7.527,0,0,0-6.7,0,5.642,5.642,0,0,0-2.27,2.2,6.472,6.472,0,0,0-.811,3.242,6.556,6.556,0,0,0,.811,3.267,5.647,5.647,0,0,0,2.27,2.224,7.5,7.5,0,0,0,6.7,0,5.647,5.647,0,0,0,2.27-2.224,6.56,6.56,0,0,0,.811-3.267,6.475,6.475,0,0,0-.811-3.242A5.641,5.641,0,0,0,490.236,1789.228Zm-6.047,2.6a3.55,3.55,0,0,1,2.711-1.112,3.62,3.62,0,0,1,2.711,1.112,4.12,4.12,0,0,1,1.042,2.9,4.077,4.077,0,0,1-1.042,2.895,3.859,3.859,0,0,1-5.421,0,3.992,3.992,0,0,1-1.066-2.895A4.034,4.034,0,0,1,484.19,1791.824Z" transform="translate(-480.459 -1788.443)"/></g><g transform="translate(76.423 4.862)"><path d="M515.72,1804.88a4.83,4.83,0,0,0,1.6-2.179l5.607-14.018h-2.664l-3.429,9.338-3.684-9.338h-2.757l5.1,12.142-.417.928a2.017,2.017,0,0,1-1.877,1.365,2.226,2.226,0,0,1-.788-.139,3.771,3.771,0,0,1-.811-.462l-1.135,2.061a4.67,4.67,0,0,0,1.344.785,4.334,4.334,0,0,0,1.506.257A4.044,4.044,0,0,0,515.72,1804.88Z" transform="translate(-510.392 -1788.682)"/></g></g><g transform="translate(18.88 0) rotate(2.094)"><g transform="matrix(0.999, -0.037, 0.037, 0.999, 24, 23.156)"><path d="M4.379.65a4.547,4.547,0,0,0-1.714,1.9V.09H0V12.416H2.664V5.977a3.656,3.656,0,0,1,1.3-2.572,4.125,4.125,0,0,1,2.966-.858V0A4.785,4.785,0,0,0,4.379.65Z" transform="translate(0 0)"/></g><g transform="translate(24.543 35.928) rotate(142.689)"><path class="c" d="M1.843,0a3.64,3.64,0,0,0,.432.59c.164.144-.049.02-.158-.029s.084.286.417.561a2.3,2.3,0,0,1,.82,1.094c.026.324.014.1.014.1s-.193-.151-.273-.144.269.192.446.59a5.444,5.444,0,0,1,.288.95L3.6,3.526a1.749,1.749,0,0,1,.187.662c.08.512.029.532.029.532a.433.433,0,0,1-.288-.115c-.118-.118.054.335.014.878a6.16,6.16,0,0,0-.014.849s-.154-.217-.216-.23.076.251.014.489a1.85,1.85,0,0,1-.144.389l-.187-.216a2.4,2.4,0,0,1-.273.648c-.162.222-.273.245-.273.245s.2-.147-.043-.4a3.461,3.461,0,0,1-.489-.907l-.245.259a6.165,6.165,0,0,1-.23-.648c-.074-.277-.1-.476-.115-.532s-.008.3-.115.317S1.1,5.574.994,5.3A4.977,4.977,0,0,1,.821,4.5a2.564,2.564,0,0,0-.158.5C.646,5.177.507,4.755.4,4.375a2.275,2.275,0,0,1-.1-.547s-.131.04-.144.144S.083,3.7.1,3.511.16,2.821.16,2.821a.611.611,0,0,0-.144.144C-.035,3.044.048,2.7.131,2.4A4.526,4.526,0,0,1,.922.849,5.773,5.773,0,0,0,1.584.2.44.44,0,0,1,1.843,0Z" transform="translate(0 0)"/><path class="d" d="M3.362,2.312c-.034-.026-.2-.145-.267-.139s.269.192.446.59a5.444,5.444,0,0,1,.288.95L3.6,3.526a1.749,1.749,0,0,1,.187.662c.08.512.029.532.029.532a.433.433,0,0,1-.288-.115c-.118-.118.054.335.014.878a6.16,6.16,0,0,0-.014.849s-.154-.217-.216-.23.076.251.014.489a1.85,1.85,0,0,1-.144.389l-.187-.216a2.4,2.4,0,0,1-.273.648c-.162.222-.273.245-.273.245s.2-.147-.043-.4a3.461,3.461,0,0,1-.489-.907l-.245.259a6.165,6.165,0,0,1-.23-.648c-.074-.277-.1-.476-.115-.532s-.008.3-.115.317S1.1,5.574.994,5.3A4.977,4.977,0,0,1,.821,4.5a2.564,2.564,0,0,0-.158.5C.646,5.177.507,4.755.4,4.375a2.275,2.275,0,0,1-.1-.547s-.131.04-.144.144S.083,3.7.1,3.511.16,2.821.16,2.821a.611.611,0,0,0-.144.144C-.035,3.044.048,2.7.131,2.4A4.526,4.526,0,0,1,.922.849,5.773,5.773,0,0,0,1.584.2.44.44,0,0,1,1.843,0a3.64,3.64,0,0,0,.432.59c.164.144-.049.02-.158-.029s.084.286.417.561a2.3,2.3,0,0,1,.82,1.094c0,.04.006.071.008.1l.006,0S3.378,2.489,3.362,2.312ZM2.587,7.481a1.147,1.147,0,0,0,.086-.105,2.309,2.309,0,0,0,.264-.627l.029-.11.2.233a2.024,2.024,0,0,0,.1-.295.69.69,0,0,0-.006-.3,1.315,1.315,0,0,1-.027-.149.084.084,0,0,1,.025-.067.069.069,0,0,1,.064-.016.255.255,0,0,1,.1.072l.032.035c0-.146,0-.373.022-.672a3.38,3.38,0,0,0-.044-.73.586.586,0,0,1-.009-.163.07.07,0,0,1,.055-.057.1.1,0,0,1,.086.035.351.351,0,0,0,.2.094c0-.006,0-.013,0-.021A2.712,2.712,0,0,0,3.727,4.2a1.744,1.744,0,0,0-.177-.636L3.29,3.2l.443.36a4.806,4.806,0,0,0-.246-.77,1.758,1.758,0,0,0-.438-.55.079.079,0,0,1-.019-.083.067.067,0,0,1,.061-.041.263.263,0,0,1,.126.034.828.828,0,0,1,.074.042A1.015,1.015,0,0,0,3.1,1.805,3.621,3.621,0,0,0,2.5,1.169,2.026,2.026,0,0,1,2.083.714.35.35,0,0,1,2.026.578.076.076,0,0,1,2.049.516.071.071,0,0,1,2.11.5,5.025,5.025,0,0,1,1.817.072a.458.458,0,0,0-.184.164,5.812,5.812,0,0,1-.67.657A4.443,4.443,0,0,0,.188,2.42c-.034.119-.068.264-.092.374l.029-.022.1-.072-.01.126s-.039.506-.058.692a1.571,1.571,0,0,0,.02.31.345.345,0,0,1,.1-.057l.079-.024v.082a2.254,2.254,0,0,0,.1.53c.053.193.114.4.164.527a3.558,3.558,0,0,1,.14-.4l.085-.2.03.217a4.872,4.872,0,0,0,.17.779c.061.165.087.3.121.372a.143.143,0,0,0,.015.027.016.016,0,0,0,.012.008.121.121,0,0,0,.012-.018.266.266,0,0,0,.018-.052,1.558,1.558,0,0,0,.028-.184.108.108,0,0,1,.015-.043.057.057,0,0,1,.061-.024.061.061,0,0,1,.05.048c.017.057.041.256.116.534a5.477,5.477,0,0,0,.193.554l.247-.261.034.09a3.361,3.361,0,0,0,.476.886A.421.421,0,0,1,2.587,7.481Z" transform="translate(0 0)"/></g><g transform="translate(22.627 35.576) rotate(142.689)"><path class="e" d="M1.051,3.841A3.89,3.89,0,0,0,.979,2.732c-.124-.387.008.128.158.086s.376.412.475.518A6.194,6.194,0,0,1,.863,2.272,14.507,14.507,0,0,1,.36.761C.229.309.227.3.245.1S.336-.041.2.66s-.127.8-.2,1.382" transform="translate(0 0)"/></g><g transform="translate(23.223 36.698) rotate(142.689)"><path class="e" d="M.283,0A2.858,2.858,0,0,0,.01,1.266c.072.53.066.942.461,1.3A2.753,2.753,0,0,1,1.319,3.67c.073.322-.607-1.325-.95-1.022s.145.464,0,1.324a7.7,7.7,0,0,1-.23,1.094" transform="translate(0 0)"/></g><g transform="translate(5.116 16.531) rotate(-20.92)"><path class="d" d="M0,2.53c.312-.146.593-.222.756-.042l.115.2a1.118,1.118,0,0,1,.6-.393c.116,0,.243.153.243.153a1.9,1.9,0,0,1,.533-.119c.23,0,.544-.611.715-.693S4.536.9,4.536.9,4.6.835,4.52.609,3.838.1,3.686.048a5.631,5.631,0,0,0-1.459,0A22.014,22.014,0,0,0,0,2.53Z" transform="translate(0 0)"/></g><g transform="translate(10.17 15.371) rotate(-20.92)"><path class="d" d="M2.463,0c.049,0,.459.268.577.321a3.9,3.9,0,0,1,.417.128,1.545,1.545,0,0,1,.577.641c.155.311-.208.16-.208.16a1.064,1.064,0,0,0-.449-.5A.815.815,0,0,0,2.848.625a1.751,1.751,0,0,0-.791.728c-.134.31-.078-.088-.077-.158s-.144-.084-.271.2a3.5,3.5,0,0,1-.528.764.573.573,0,0,1-.244.154S1.1,1.9.873,2.084C.68,2.24.019,2.74,0,2.759A1.969,1.969,0,0,1,.273,2.32C.9,1.6,2.425,0,2.463,0Z" transform="translate(0 0)"/></g><g transform="translate(7.881 41.424) rotate(-20.92)"><path class="d" d="M0,.938S.313.939.449.922s.306-.046.176.144.262-.018.5.016.706.08.706.08-.042.193-.16.16a2.639,2.639,0,0,0,.658.321c.182.046.343.1.144.128s.463.249.69.273.6.1.529.321-.048.241-.048.241a1.647,1.647,0,0,1,.946-.016,2.843,2.843,0,0,0,1.812,0c.354-.243.325-.147.3.032s0,.128,0,.128a.871.871,0,0,1,.658-.192c.39.052,1.428,0,1.588-.417s.225-.119.144,0a.783.783,0,0,1,.561-.321,5.289,5.289,0,0,1,1.026,0c.227.057-.128.048-.128.048a3.31,3.31,0,0,0,1.171-.561A4.888,4.888,0,0,0,12.749.136C12.9-.15,12.637.1,12.637.1L.93.393A2.7,2.7,0,0,1,.449.778,1.4,1.4,0,0,1,0,.938Z" transform="translate(0 0)"/></g><g transform="translate(12.869 10.446) rotate(-2.094)"><path class="d" d="M12.16,25.7c.062.289.113.557.143.772a8.485,8.485,0,0,0,.859,2.209c.278.62,1.125,2.722,1.444,3.489a5.441,5.441,0,0,0,.673,1.394c.049.074-.626.71-.652.646-.27-.661-.784-1.657-1.107-2.3-.64-1.265-1.488-3.371-1.488-3.371s-.449-.2-.642-.292-.7-.463-.892-.557a2.883,2.883,0,0,0-.674-.291,5.283,5.283,0,0,1-.57.024l.034-.373s.046-.13.157-.087a3.628,3.628,0,0,1,.915.3,1.7,1.7,0,0,0,.6.27c.175.056.8.193.8.193a2.554,2.554,0,0,1-.2-.653,3.52,3.52,0,0,0-.223-.941,3.953,3.953,0,0,1-.11-.433ZM10.5,20.608v2.455c-.306-.84-.646-1.892-.807-2.446l0-.009ZM9.052,18.693c-.035-.115-.063-.22-.082-.313C8.857,17.842,7.915,15.855,7.8,15.3s-.184-.937-.184-.937S4.715,9.2,4.284,8.007s-.8-2.013-.8-2.013A2.976,2.976,0,0,1,2.634,5.5c-.237-.254-.256-.093-.4-.17a2.9,2.9,0,0,1-1.16-.57A1.029,1.029,0,0,0,.071,4.5c-.216.02.13-.214.13-.214A.792.792,0,0,1,.88,4.237c.279.17.983.819,1.36.807a1.575,1.575,0,0,1,.91.283c.1.1-.125-.411-.249-.779s-.423-1.19-.635-1.715S1.1.2,1.1.2l.83-.2s.186.508.331.8a11.975,11.975,0,0,1,.637,1.346c.241.632.334.871.521,1.33a13,13,0,0,0,.536,1.274,20.618,20.618,0,0,1,.995,2.321c.07.325.709,1.35.91,1.972s2.706,5.649,2.868,6.178c.137.447.72,1.848,1.066,2.731H9.052Z" transform="translate(0 0)"/><path class="d" d="M12.16,25.7c.062.289.113.557.143.772a8.485,8.485,0,0,0,.859,2.209c.278.62,1.125,2.722,1.444,3.489a5.441,5.441,0,0,0,.673,1.394c.049.074-.626.71-.652.646-.27-.661-.784-1.657-1.107-2.3-.64-1.265-1.488-3.371-1.488-3.371s-.449-.2-.642-.292-.7-.463-.892-.557a2.883,2.883,0,0,0-.674-.291,5.283,5.283,0,0,1-.57.024l.034-.373s.046-.13.157-.087a3.628,3.628,0,0,1,.915.3,1.7,1.7,0,0,0,.6.27c.175.056.8.193.8.193a2.554,2.554,0,0,1-.2-.653,3.52,3.52,0,0,0-.223-.941,3.953,3.953,0,0,1-.11-.433Zm-.043.053H11.3a3.3,3.3,0,0,0,.093.362,3.57,3.57,0,0,1,.226.955,2.473,2.473,0,0,0,.191.635l.044.1-.1-.023s-.63-.138-.806-.194a1.747,1.747,0,0,1-.618-.279,1.115,1.115,0,0,0-.356-.152c-.23-.067-.477-.112-.544-.138a.057.057,0,0,0-.071.026.147.147,0,0,0-.014.025l-.028.306a3.933,3.933,0,0,0,.5-.021.121.121,0,0,1,.051,0,.582.582,0,0,1,.127.039c.158.063.4.191.535.258.2.094.7.467.892.557s.641.292.641.292l.02.009.008.02s.847,2.1,1.486,3.367c.316.625.815,1.592,1.09,2.253.025-.017.064-.044.1-.071a3.32,3.32,0,0,0,.43-.431.528.528,0,0,0,.04-.063,5.481,5.481,0,0,1-.667-1.387c-.318-.767-1.165-2.868-1.443-3.488a8.539,8.539,0,0,1-.863-2.223C12.222,26.279,12.175,26.027,12.117,25.756ZM10.5,20.608v2.455c-.306-.84-.646-1.892-.807-2.446l0-.009Zm-.053,2.148V20.662H9.757C9.9,21.163,10.177,22.008,10.442,22.756Zm-1.39-4.064c-.035-.115-.063-.22-.082-.313C8.857,17.842,7.915,15.855,7.8,15.3s-.184-.937-.184-.937S4.715,9.2,4.284,8.007s-.8-2.013-.8-2.013A2.976,2.976,0,0,1,2.634,5.5c-.237-.254-.256-.093-.4-.17a2.9,2.9,0,0,1-1.16-.57A1.029,1.029,0,0,0,.071,4.5c-.216.02.13-.214.13-.214A.792.792,0,0,1,.88,4.237c.279.17.983.819,1.36.807a1.575,1.575,0,0,1,.91.283c.1.1-.125-.411-.249-.779s-.423-1.19-.635-1.715S1.1.2,1.1.2l.83-.2s.186.508.331.8a11.975,11.975,0,0,1,.637,1.346c.241.632.334.871.521,1.33a13,13,0,0,0,.536,1.274,20.618,20.618,0,0,1,.995,2.321c.07.325.709,1.35.91,1.972s2.706,5.649,2.868,6.178c.137.447.72,1.848,1.066,2.731H9.052ZM1.893.063,1.172.235c.156.345.952,2.1,1.143,2.577.212.526.513,1.349.637,1.718.1.3.264.691.275.783a.066.066,0,0,1-.038.076.073.073,0,0,1-.077-.026.811.811,0,0,0-.236-.135A1.616,1.616,0,0,0,2.242,5.1a1.206,1.206,0,0,1-.591-.239c-.31-.2-.63-.474-.8-.576a.486.486,0,0,0-.324-.05,1.026,1.026,0,0,0-.3.1,1.345,1.345,0,0,0-.134.1L.087,4.44a1.058,1.058,0,0,1,1.029.286,1.822,1.822,0,0,0,.775.437,3.817,3.817,0,0,1,.371.123.147.147,0,0,0,.1.013c.068-.006.145-.009.308.167a2.887,2.887,0,0,0,.825.478l.02.008.009.02s.374.819.806,2.017,3.331,6.344,3.331,6.344l0,.008,0,.009s.071.377.184.936c.107.531.962,2.349,1.145,2.991V17.9h.713c-.349-.886-.905-2.226-1.039-2.662-.162-.529-2.667-5.555-2.868-6.177a10.5,10.5,0,0,0-.614-1.308,3.748,3.748,0,0,1-.3-.668A20.513,20.513,0,0,0,3.9,4.772a13.033,13.033,0,0,1-.538-1.278c-.188-.46-.28-.7-.522-1.331A11.918,11.918,0,0,0,2.21.821C2.09.582,1.942.194,1.893.063Z" transform="translate(0 0)"/></g><g transform="translate(27.933 42.83) rotate(-20.92)"><path class="d" d="M2.15,25.144a.589.589,0,0,1-.417-.016c-.369-.1-.344.171-.465.192-.358.063-.023-1.231-.19-2.611-.048-.4-.025-.9-.174-3.312C.869,18.814.63,17.546.594,16.88.575,16.518.4,15.78.387,15.406.367,14.891.32,14.157.32,13.393c0-.526-.146-1.45-.166-1.861A15.167,15.167,0,0,1,0,9.927a10.226,10.226,0,0,1,.31-1.813A4.646,4.646,0,0,0,.41,5.9,11.821,11.821,0,0,0,.49,3.591C.413,3.085.177.836.154.125c0-.026.712-.486.911.543.034.174.068.455.094.6.113.626.153.865.2,1.253.008.065.048.214.062.27a2.244,2.244,0,0,1,.02.472c0,.067.071.278.071.347,0,.443-.08.806-.107,1.2-.042.621-.259,2.816-.273,3.223s-.2.832-.192,1.042a3.247,3.247,0,0,1-.1.786c-.034.165.008,2.223.2,4.667.044.561.208.963.253,1.571.037.505-.022,1.531.019,2.023.031.373.263,1.089.292,1.434.036.442-.021,1.086.012,1.453a7.263,7.263,0,0,0,.261,1.522c0,.231-.027.273-.016.481s.044.194.08.545a4.01,4.01,0,0,1,.032.674A2,2,0,0,0,2.15,25.144Z" transform="translate(0 0)"/><path class="d" d="M2.15,25.144a.589.589,0,0,1-.417-.016c-.369-.1-.344.171-.465.192-.358.063-.023-1.231-.19-2.611-.048-.4-.025-.9-.174-3.312C.869,18.814.63,17.546.594,16.88.575,16.518.4,15.78.387,15.406.367,14.891.32,14.157.32,13.393c0-.526-.146-1.45-.166-1.861A15.167,15.167,0,0,1,0,9.927a10.226,10.226,0,0,1,.31-1.813A4.646,4.646,0,0,0,.41,5.9,11.821,11.821,0,0,0,.49,3.591C.413,3.085.177.836.154.125c0-.026.712-.486.911.543.034.174.068.455.094.6.113.626.153.865.2,1.253.008.065.048.214.062.27a2.244,2.244,0,0,1,.02.472c0,.067.071.278.071.347,0,.443-.08.806-.107,1.2-.042.621-.259,2.816-.273,3.223s-.2.832-.192,1.042a3.247,3.247,0,0,1-.1.786c-.034.165.008,2.223.2,4.667.044.561.208.963.253,1.571.037.505-.022,1.531.019,2.023.031.373.263,1.089.292,1.434.036.442-.021,1.086.012,1.453a7.263,7.263,0,0,0,.261,1.522c0,.231-.027.273-.016.481s.044.194.08.545a4.01,4.01,0,0,1,.032.674A2,2,0,0,0,2.15,25.144Zm-.339-2.611S1.8,22.5,1.8,22.474a7.208,7.208,0,0,1-.245-1.46c-.032-.367.025-1.011-.012-1.453-.028-.345-.26-1.061-.292-1.433-.041-.492.019-1.518-.019-2.024-.045-.607-.209-1.01-.253-1.571-.191-2.454-.231-4.52-.2-4.686a3.2,3.2,0,0,0,.095-.77,1.451,1.451,0,0,1,.063-.359,3.242,3.242,0,0,0,.13-.688c.013-.407.231-2.6.273-3.226.027-.394.105-.755.107-1.2a.93.93,0,0,0-.032-.158,1.328,1.328,0,0,1-.038-.186,2.182,2.182,0,0,0-.018-.458c-.015-.058-.056-.211-.064-.279-.047-.387-.087-.625-.2-1.25C1.066,1.135,1.032.854,1,.68.933.34.812.173.677.105A.481.481,0,0,0,.222.154C.251.9.48,3.083.556,3.581A11.878,11.878,0,0,1,.477,5.9a4.68,4.68,0,0,1-.1,2.226,10.181,10.181,0,0,0-.309,1.8,15.137,15.137,0,0,0,.15,1.6c.02.412.166,1.337.166,1.864,0,.763.047,1.5.067,2.011.014.373.188,1.112.208,1.473.036.666.275,1.934.31,2.516.149,2.412.126,2.912.174,3.309a23.2,23.2,0,0,1,.023,2.339.617.617,0,0,0,.03.166c.013.033.028.054.059.049.013,0,.019-.014.028-.025s.025-.036.04-.055a.313.313,0,0,1,.146-.117.451.451,0,0,1,.281.007.8.8,0,0,0,.3.037,2.168,2.168,0,0,1-.149-.872,3.951,3.951,0,0,0-.032-.666c-.036-.353-.069-.339-.08-.548S1.816,22.764,1.811,22.534Z" transform="translate(0 0)"/></g><g transform="translate(20.783 24.242) rotate(-20.92)"><path class="d" d="M.064,0a7.971,7.971,0,0,1,0,.9C.033,1.233,0,1.876,0,1.876s.368.043.481.257.1-.153.144-.048a3.185,3.185,0,0,0,.225.353,7.884,7.884,0,0,0,0-.882C.821,1.143.738.465.738.465Z" transform="translate(0 0)"/><path class="d" d="M.064,0a7.971,7.971,0,0,1,0,.9C.033,1.233,0,1.876,0,1.876s.368.043.481.257.1-.153.144-.048a3.185,3.185,0,0,0,.225.353,7.884,7.884,0,0,0,0-.882C.821,1.143.738.465.738.465ZM.137.131A6.938,6.938,0,0,1,.131.9c-.025.273-.052.75-.061.916a1.062,1.062,0,0,1,.22.069.529.529,0,0,1,.238.192l0-.005a.16.16,0,0,1,.019-.044A.07.07,0,0,1,.624,2a.087.087,0,0,1,.063.058,1.453,1.453,0,0,0,.105.178C.8,2.062.8,1.8.783,1.56.758,1.2.691.638.675.5Z" transform="translate(0 0)"/></g><g transform="translate(26.631 38.29) rotate(-20.92)"><path class="d" d="M0,.58a.958.958,0,0,0,.144-.5c.023-.341.089.464.176.77s.1,2.941.208,3.512S.69,6.321.69,6.321.3,3.437.257,2.969.17,1.558.128,1.141A1.515,1.515,0,0,0,0,.58Z" transform="translate(0 0)"/><path class="d" d="M0,.58a.958.958,0,0,0,.144-.5c.023-.341.089.464.176.77s.1,2.941.208,3.512S.69,6.321.69,6.321.3,3.437.257,2.969.17,1.558.128,1.141A1.515,1.515,0,0,0,0,.58ZM.163.374A.89.89,0,0,1,.076.585a1.908,1.908,0,0,1,.118.55c.042.417.09,1.362.128,1.829.009.109.038.351.076.657C.347,2.626.322,1.1.256.871A4.726,4.726,0,0,1,.163.374Z" transform="translate(0 0)"/></g><g transform="translate(14.641 20.426) rotate(-20.92)"><path class="d" d="M4.807.545a.95.95,0,0,0-.257.176C4.5.793,4.412.554,4.07.641a9.786,9.786,0,0,0-1.459.529A2.078,2.078,0,0,1,1.1,1.379C.67,1.181.538,1.189.4,1.042S.18.791.012.609,1.456,0,1.456,0Z" transform="translate(0 0)"/><path class="d" d="M4.807.545a.95.95,0,0,0-.257.176C4.5.793,4.412.554,4.07.641a9.786,9.786,0,0,0-1.459.529A2.078,2.078,0,0,1,1.1,1.379C.67,1.181.538,1.189.4,1.042S.18.791.012.609,1.456,0,1.456,0Zm-.2.036L1.459.068A7.562,7.562,0,0,0,.133.533.4.4,0,0,0,.075.579C.233.751.309.854.445,1a.545.545,0,0,0,.219.133c.106.041.248.089.466.189a1.1,1.1,0,0,0,.579.058,2.825,2.825,0,0,0,.87-.266A9.886,9.886,0,0,1,4.053.577a.513.513,0,0,1,.4.041c.022.013.047.028.064.039A.513.513,0,0,1,4.587.6Z" transform="translate(0 0)"/></g><g transform="translate(15.969 15.558) rotate(-20.92)"><path class="f" d="M0,0A1.429,1.429,0,0,1,.417.722,6.418,6.418,0,0,1,.433,2.213C.427,2.6.435,1.4.321.882A2.322,2.322,0,0,0,0,0Z" transform="translate(0 0)"/><path class="d" d="M0,0A1.429,1.429,0,0,1,.417.722,6.418,6.418,0,0,1,.433,2.213C.427,2.6.435,1.4.321.882A2.322,2.322,0,0,0,0,0Z" transform="translate(0 0)"/></g><g transform="translate(11.555 20.172) rotate(-20.92)"><path class="c" d="M8.594,1.532A2.126,2.126,0,0,0,7.5.746C6.782.53,5.253.613,4.681.329a5.763,5.763,0,0,0-2.422-.3C1.745.1,1.112.205.688.249A1.825,1.825,0,0,1,.03.185c-.148,0,.281.242.577.289A1.81,1.81,0,0,1,1.65.906c.295.305.475.19.674.513a1.881,1.881,0,0,0,.5.545c.165.146.195.307.417.417a2.019,2.019,0,0,0,1.6.225,8.584,8.584,0,0,1,2.2-.722C7.426,1.927,8.713,2.06,8.594,1.532Z" transform="translate(0 0)"/><path class="d" d="M8.594,1.532A2.126,2.126,0,0,0,7.5.746C6.782.53,5.253.613,4.681.329a5.763,5.763,0,0,0-2.422-.3C1.745.1,1.112.205.688.249A1.825,1.825,0,0,1,.03.185c-.148,0,.281.242.577.289A1.81,1.81,0,0,1,1.65.906c.295.305.475.19.674.513a1.881,1.881,0,0,0,.5.545c.165.146.195.307.417.417a2.019,2.019,0,0,0,1.6.225,8.584,8.584,0,0,1,2.2-.722C7.426,1.927,8.713,2.06,8.594,1.532Zm-.063.026A2.064,2.064,0,0,0,7.484.81,11.305,11.305,0,0,0,5.708.6,3.361,3.361,0,0,1,4.651.389,5.671,5.671,0,0,0,2.269.09C1.753.165,1.119.272.694.315a1.474,1.474,0,0,1-.382,0,1.348,1.348,0,0,0,.3.094A1.881,1.881,0,0,1,1.7.86a1,1,0,0,0,.353.236.663.663,0,0,1,.329.289,1.828,1.828,0,0,0,.484.53,1.119,1.119,0,0,1,.164.188.62.62,0,0,0,.239.219,1.946,1.946,0,0,0,1.549.222C5.29,2.356,5.99,2.055,6.5,1.907a1.612,1.612,0,0,1,.544-.089A4.538,4.538,0,0,0,8.2,1.831a.728.728,0,0,0,.237-.08A.176.176,0,0,0,8.531,1.558Z" transform="translate(0 0)"/></g><g transform="translate(14.567 19.525) rotate(-20.92)"><path class="g" d="M0,0A3.994,3.994,0,0,1,1.267.147C1.686.323,1.614.1,1.2.211S.776.391.593.355s.859-.277,1.3-.016.393.338.658.385-.9.235-1.379.144S2.654,1.017,2.55.612s-.032.2.465.176,1.319-.209,1.876.385.241.064.241.064" transform="translate(0 0)"/></g><g transform="translate(17.073 18.895) rotate(-20.92)"><path class="c" d="M4.073.914S3.422.83,3.191.834a4.357,4.357,0,0,0-1.3.273c-.23.143-.128.1-.3.289s-.922.378-1.2.9A4.261,4.261,0,0,0,0,3.288s.26-.186.208.064-.1.69-.1.69.235-.3.208-.08A7.522,7.522,0,0,0,.273,5.212c.046.145.2-.311.257.064a5.521,5.521,0,0,0,.16.69s.1-.312.192.1.192.481.192.481.014-.454.208-.176a2.017,2.017,0,0,0,.674.5s-.056-.281.289.032a1.4,1.4,0,0,0,.722.353s-.222-.311,0-.241a7.118,7.118,0,0,1,1.475.321c.3.2.477.115.385-.016s-.246-.226-.032-.208.869.083,1.026.112-.1-.206.16-.08.967.284,1.074.449-.074-.221-.032-.4a2.345,2.345,0,0,1,.144-.529c.078-.148.143-.2.273-.048s.361-.462.465-.545.037.128.128.257.217-.576.337-.513.121.192.208.064.059-.555.273-.417.218.311.385.016a3.914,3.914,0,0,0,.658-2.117c0-1.116-.252-1.294-.433-1.54s-.8-.04-1.155-.5S7.136-.019,6.543,0A2.063,2.063,0,0,0,5.18.546C4.654.925,4.6,1,4.073.914Z" transform="translate(0 0)"/><path class="d" d="M4.073.914S3.422.83,3.191.834a4.357,4.357,0,0,0-1.3.273c-.23.143-.128.1-.3.289s-.922.378-1.2.9A4.261,4.261,0,0,0,0,3.288s.26-.186.208.064-.1.69-.1.69.235-.3.208-.08A7.522,7.522,0,0,0,.273,5.212c.046.145.2-.311.257.064a5.521,5.521,0,0,0,.16.69s.1-.312.192.1.192.481.192.481.014-.454.208-.176a2.017,2.017,0,0,0,.674.5s-.056-.281.289.032a1.4,1.4,0,0,0,.722.353s-.222-.311,0-.241a7.118,7.118,0,0,1,1.475.321c.3.2.477.115.385-.016s-.246-.226-.032-.208.869.083,1.026.112-.1-.206.16-.08.967.284,1.074.449-.074-.221-.032-.4a2.345,2.345,0,0,1,.144-.529c.078-.148.143-.2.273-.048s.361-.462.465-.545.037.128.128.257.217-.576.337-.513.121.192.208.064.059-.555.273-.417.218.311.385.016a3.914,3.914,0,0,0,.658-2.117c0-1.116-.252-1.294-.433-1.54s-.8-.04-1.155-.5S7.136-.019,6.543,0A2.063,2.063,0,0,0,5.18.546C4.654.925,4.6,1,4.073.914ZM9.089,5.562A.1.1,0,0,0,9.1,5.549a.641.641,0,0,0,.075-.113,3.849,3.849,0,0,0,.649-2.084c0-1.087-.243-1.261-.42-1.5a.239.239,0,0,0-.123-.078,1.321,1.321,0,0,0-.216-.045,1.131,1.131,0,0,1-.814-.373A5.376,5.376,0,0,0,7.279.377a1.293,1.293,0,0,0-.734-.31A2.01,2.01,0,0,0,5.219.6a2,2,0,0,1-.666.4A1.32,1.32,0,0,1,4.064.981C4.04.977,3.416.9,3.193.9a4.24,4.24,0,0,0-1.265.263c-.221.137-.122.1-.292.278A2.037,2.037,0,0,1,1.2,1.7a1.705,1.705,0,0,0-.756.624A4.359,4.359,0,0,0,.1,3.163a.158.158,0,0,1,.115.006c.041.021.082.075.056.2-.029.141-.056.341-.073.489l.023-.016A.109.109,0,0,1,.35,3.832a.141.141,0,0,1,.038.137c-.018.153-.057.63-.063.951,0,.086,0,.16,0,.212l.007-.007a.293.293,0,0,1,.058-.049A.113.113,0,0,1,.476,5.06a.114.114,0,0,1,.072.055.416.416,0,0,1,.047.15c.036.218.084.416.118.541A.11.11,0,0,1,.77,5.785a.1.1,0,0,1,.073.024.429.429,0,0,1,.1.239,1.774,1.774,0,0,0,.09.3.31.31,0,0,1,.02-.052A.125.125,0,0,1,1.2,6.214a.26.26,0,0,1,.135.115A1.706,1.706,0,0,0,1.9,6.76a.113.113,0,0,1,.083-.075.17.17,0,0,1,.107.016.818.818,0,0,1,.2.146,1.4,1.4,0,0,0,.543.3.366.366,0,0,1-.027-.074.117.117,0,0,1,.035-.123.156.156,0,0,1,.146-.009c.132.042.523.077.88.141a1.884,1.884,0,0,1,.611.188.587.587,0,0,0,.261.107.124.124,0,0,0,.038,0l.006,0a.106.106,0,0,0-.011-.023c-.035-.05-.08-.094-.108-.129a.24.24,0,0,1-.037-.058.086.086,0,0,1,.009-.088.094.094,0,0,1,.047-.033A.31.31,0,0,1,4.8,7.038c.2.016.79.076,1,.107a.129.129,0,0,1,0-.029.082.082,0,0,1,.088-.083.36.36,0,0,1,.131.044c.18.088.58.191.841.3a1.255,1.255,0,0,1,.125.061c0-.019-.009-.039-.012-.059a.549.549,0,0,1-.005-.21,2.412,2.412,0,0,1,.15-.545.318.318,0,0,1,.157-.17c.059-.018.134,0,.224.108a.151.151,0,0,0,.021-.015.294.294,0,0,0,.027-.029c.013-.015.025-.032.038-.05.072-.106.147-.255.206-.352a.446.446,0,0,1,.083-.106.1.1,0,0,1,.171.056c.006.028.008.07.017.114a.375.375,0,0,0,.01.044c.011-.022.024-.049.034-.073A2.022,2.022,0,0,1,8.253,5.8c.047-.064.1-.075.15-.05a.36.36,0,0,1,.1.08l.015.016.008-.01a.479.479,0,0,0,.047-.149,1.189,1.189,0,0,1,.057-.207.193.193,0,0,1,.1-.107.172.172,0,0,1,.164.028,1.068,1.068,0,0,1,.155.128.444.444,0,0,0,.035.031Z" transform="translate(0 0)"/></g><g transform="translate(19.502 19.993) rotate(-20.92)"><path class="g" d="M0,3A2.723,2.723,0,0,1,1.09,1.716a4.766,4.766,0,0,1,1.684-.641c.581-.11.444.029.611-.167.27-.318-.408.06-.45.055-.2-.024.431-.222,1.09-.545A7.854,7.854,0,0,1,6.238,0" transform="translate(0 0)"/></g><g transform="translate(18.661 20.126) rotate(-20.92)"><path class="g" d="M3.142,0A2.775,2.775,0,0,0,2.2.337,16.931,16.931,0,0,0,.031,1.956,4.639,4.639,0,0,1,1.586.561C2.211.4,2.847.537,3.087.292" transform="translate(0 0)"/></g><g transform="translate(21.25 21.334) rotate(-20.92)"><path class="g" d="M5.469,0a8.608,8.608,0,0,0-2.71.417c-.7.392.025.113.289-.032S1.959.562,1.636.77a3.51,3.51,0,0,0-.93.738A2.217,2.217,0,0,1,0,2.037" transform="translate(0 0)"/></g><g transform="translate(24.142 21.602) rotate(-20.92)"><path class="g" d="M0,.4S.065.086.538.144s.6.072.8-.144" transform="translate(0 0)"/></g><g transform="translate(21.14 18.22) rotate(-20.92)"><path class="g" d="M.13.142A.74.74,0,0,0,.162.864c.229.378.076.194.353-.1A4.284,4.284,0,0,1,2.92.014C3.6.122.86.121.29.96s-.268-.633.625.9a5.277,5.277,0,0,1,.9,2.373c.239.9.369,1.283.561,1.347s-.446-.911-.625-1.026-.137.32-.513.433" transform="translate(0 0)"/></g><g transform="translate(6.57 16.666) rotate(-20.92)"><path class="c" d="M6.946.444a1.651,1.651,0,0,0-.77.481c-.321.371-.3.417-.3.417s-.119-.409-.3-.08a5.485,5.485,0,0,1-.545.834c-.11.106-.1.112-.1.112s.056-.287-.116-.189a1.426,1.426,0,0,0-.312.236,3.009,3.009,0,0,1-.358.29c-.15.092-.241.144-.241.144s.076-.188-.048-.241-.264.023-.5.273a1.345,1.345,0,0,1-.465.337c-.222.14-.257.112-.257.112s.15-.264-.016-.208-.22.19-.433.257a1.228,1.228,0,0,0-.385.144c-.187.106-.148.192-.273.192s-.017-.164-.1-.241-.271.052-.706.289a2.539,2.539,0,0,1-.674.289c-.118.035-.006-.28.112-.5a4.428,4.428,0,0,0,.208-.449.72.72,0,0,1-.208.064c-.093.008.074-.247.289-.69A2.892,2.892,0,0,1,1.59.974C2.179.655,2.6.25,3.1.252a6.077,6.077,0,0,0,1.187,0c.358-.075-.041.115-.128.16A6,6,0,0,1,5.134.06,2.171,2.171,0,0,1,6.561.188a2.855,2.855,0,0,0,.481.273Z" transform="translate(0 0)"/><path class="d" d="M4.927,2.2c.007-.044.038-.27-.117-.182a1.426,1.426,0,0,0-.312.236,3.009,3.009,0,0,1-.358.29c-.15.092-.241.144-.241.144s.076-.188-.048-.241-.264.023-.5.273a1.345,1.345,0,0,1-.465.337c-.222.14-.257.112-.257.112s.15-.264-.016-.208-.22.19-.433.257a1.228,1.228,0,0,0-.385.144c-.187.106-.148.192-.273.192s-.017-.164-.1-.241-.271.052-.706.289a2.539,2.539,0,0,1-.674.289c-.118.035-.006-.28.112-.5a4.428,4.428,0,0,0,.208-.449.72.72,0,0,1-.208.064c-.093.008.074-.247.289-.69A2.892,2.892,0,0,1,1.59.974C2.179.655,2.6.25,3.1.252a6.077,6.077,0,0,0,1.187,0c.358-.075-.041.115-.128.16A6,6,0,0,1,5.134.06,2.171,2.171,0,0,1,6.561.188a2.855,2.855,0,0,0,.481.273l-.1-.016a1.651,1.651,0,0,0-.77.481c-.321.371-.3.417-.3.417s-.119-.409-.3-.08a5.485,5.485,0,0,1-.545.834.529.529,0,0,0-.095.105v.007S4.923,2.208,4.927,2.2ZM6.812.418C6.74.377,6.647.321,6.525.244A2.1,2.1,0,0,0,5.146.125a5.5,5.5,0,0,0-.97.352.067.067,0,0,1-.089-.09A.076.076,0,0,1,4.125.353L4.147.341C3.839.375,3.532.32,3.1.319A1.36,1.36,0,0,0,2.411.55c-.241.141-.494.322-.789.482A2.825,2.825,0,0,0,.511,2.35c-.128.264-.239.461-.287.575l0,.007a.756.756,0,0,0,.121-.046L.5,2.811.433,2.97a4.519,4.519,0,0,1-.212.457,1.722,1.722,0,0,0-.139.329.493.493,0,0,0-.011.061,2.576,2.576,0,0,0,.621-.272,3.905,3.905,0,0,1,.617-.311.167.167,0,0,1,.167.033.214.214,0,0,1,.053.168c0,.016,0,.04,0,.054.045,0,.053-.026.078-.056a.556.556,0,0,1,.158-.128,1.272,1.272,0,0,1,.4-.15.7.7,0,0,0,.249-.15A.583.583,0,0,1,2.595,2.9a.127.127,0,0,1,.13.013.118.118,0,0,1,.035.108.251.251,0,0,1-.009.041c.029-.015.063-.034.1-.059A1.3,1.3,0,0,0,3.3,2.676a1.338,1.338,0,0,1,.306-.263.288.288,0,0,1,.266-.026.181.181,0,0,1,.111.164v.007l.116-.07A2.948,2.948,0,0,0,4.456,2.2a1.463,1.463,0,0,1,.321-.242.143.143,0,0,1,.162-.008.145.145,0,0,1,.052.08,5.951,5.951,0,0,0,.518-.8c.076-.134.153-.166.211-.161a.184.184,0,0,1,.124.072.391.391,0,0,1,.035.051A3.95,3.95,0,0,1,6.126.882,1.709,1.709,0,0,1,6.812.418Z" transform="translate(0 0)"/></g><g transform="translate(2.08 17.718) rotate(-20.92)"><path class="c" d="M7.78.745S7.805.506,7.411.3,6.955-.022,6.625.007A10.861,10.861,0,0,0,5.31.039C4.908.123,4.2.263,3.947.28S4.11.457,3.9.44A5.889,5.889,0,0,0,2.391.6,5.652,5.652,0,0,1,1.237.825C.637.878.331,1.082.082.953s.131.111.3.289.319.4.465.577.53.191.866.1.676-.089.545.112-.192.2-.064.176.383-.165.481,0,.061.295.208.176.356-.2.321.032.225-.068.545-.144.353.1.353.1.428-.216.641-.3.157.131.3.1.246-.066.353-.08.154-.138.706-.5A3.79,3.79,0,0,1,7.78.745Z" transform="translate(0 0)"/><path class="d" d="M7.78.745S7.805.506,7.411.3,6.955-.022,6.625.007A10.861,10.861,0,0,0,5.31.039C4.908.123,4.2.263,3.947.28S4.11.457,3.9.44A5.889,5.889,0,0,0,2.391.6,5.652,5.652,0,0,1,1.237.825C.637.878.331,1.082.082.953s.131.111.3.289.319.4.465.577.53.191.866.1.676-.089.545.112-.192.2-.064.176.383-.165.481,0,.061.295.208.176.356-.2.321.032.225-.068.545-.144.353.1.353.1.428-.216.641-.3.157.131.3.1.246-.066.353-.08.154-.138.706-.5A3.79,3.79,0,0,1,7.78.745ZM7.7.681A.593.593,0,0,0,7.379.355C7.221.271,7.117.2,7.027.154a.6.6,0,0,0-.4-.08A10.784,10.784,0,0,0,5.324.1C4.932.186,4.249.32,3.978.345a.261.261,0,0,1,.031.032.081.081,0,0,1,.015.075A.073.073,0,0,1,3.981.5a.191.191,0,0,1-.087.008A5.824,5.824,0,0,0,2.406.666,5.677,5.677,0,0,1,1.243.892a6.578,6.578,0,0,0-.807.153.99.99,0,0,1-.149.017c.055.046.109.093.148.134.175.179.322.4.469.582a.378.378,0,0,0,.232.116A1.3,1.3,0,0,0,1.7,1.851a1.079,1.079,0,0,1,.547-.04.157.157,0,0,1,.106.1.182.182,0,0,1-.034.154l-.03.045a.93.93,0,0,1,.212-.05.236.236,0,0,1,.237.111.823.823,0,0,1,.066.144l.014.035a.313.313,0,0,0,.029-.021A.6.6,0,0,1,3.105,2.2a.154.154,0,0,1,.121.03.2.2,0,0,1,.05.19c.029-.014.069-.035.1-.055A1.373,1.373,0,0,1,3.739,2.2a.42.42,0,0,1,.35.03.223.223,0,0,1,.046.043c.125-.062.421-.208.588-.278.124-.052.185-.021.228.018a.366.366,0,0,1,.043.051c.01.014.019.03.045.024.15-.035.25-.067.359-.081.033,0,.056-.026.1-.063a5.434,5.434,0,0,1,.576-.424A11.96,11.96,0,0,1,7.1.874,1.647,1.647,0,0,1,7.7.681Z" transform="translate(0 0)"/></g><g transform="translate(5.561 16.85) rotate(-20.92)"><path class="h" d="M0,.456S2.059-.4,3.111.232s.423-.042-.1-.176A2.986,2.986,0,0,0,1.491.184" transform="translate(0 0)"/></g><g transform="translate(8.393 16.039) rotate(-20.92)"><path class="h" d="M0,2.047a4.39,4.39,0,0,0,1.379-.593c.28-.359-.212-.069-.385-.032s.5-.559.978-.866A3.039,3.039,0,0,1,3.8.01" transform="translate(0 0)"/></g><g transform="translate(19.849 16.085) rotate(-20.92)"><path class="c" d="M.044,2.532a3.2,3.2,0,0,0,.449-.577,4.2,4.2,0,0,0,.385-.866c.08-.3.2-.361.208-.593S.992.365,1.3.287,1.66.054,2.113.014s.86.066,1.235,0A4.581,4.581,0,0,1,4.615.191c.427.062.668-.424,1.107.257s.353.722.353.722S5.63.157,5.32.335a2.325,2.325,0,0,0-.641.593,2.936,2.936,0,0,1-1.363.738,2.258,2.258,0,0,0-1.475.4,1.745,1.745,0,0,1-1.523.577C-.162,2.492.044,2.532.044,2.532Z" transform="translate(0 0)"/><path class="d" d="M.044,2.532a3.2,3.2,0,0,0,.449-.577,4.2,4.2,0,0,0,.385-.866c.08-.3.2-.361.208-.593S.992.365,1.3.287,1.66.054,2.113.014s.86.066,1.235,0A4.581,4.581,0,0,1,4.615.191c.427.062.668-.424,1.107.257s.353.722.353.722S5.63.157,5.32.335a2.325,2.325,0,0,0-.641.593,2.936,2.936,0,0,1-1.363.738,2.258,2.258,0,0,0-1.475.4,1.745,1.745,0,0,1-1.523.577C-.162,2.492.044,2.532.044,2.532ZM5.5.27a.452.452,0,0,0-.153-.1.391.391,0,0,0-.264.01,1.051,1.051,0,0,1-.476.081C4.39.226,4.166.165,3.948.12A1.616,1.616,0,0,0,3.359.08c-.377.066-.785-.038-1.241,0a1.175,1.175,0,0,0-.5.147,1.337,1.337,0,0,1-.3.123C1.241.37,1.184.38,1.149.386a.756.756,0,0,1,0,.111.649.649,0,0,1-.084.3,1.414,1.414,0,0,0-.127.308,4.284,4.284,0,0,1-.391.88,2.993,2.993,0,0,1-.4.533l.188.062A.962.962,0,0,0,.914,2.56,2.445,2.445,0,0,0,1.8,2.018,2.329,2.329,0,0,1,3.313,1.6a1.554,1.554,0,0,0,.535-.18A3.051,3.051,0,0,0,4.63.883,2.377,2.377,0,0,1,5.287.277.231.231,0,0,1,5.5.27Z" transform="translate(0 0)"/></g><g transform="translate(21.345 15.563) rotate(-20.92)"><path class="g" d="M.818,1.187a3.734,3.734,0,0,0,.513-.85c.117-.353.332-.36.513-.321S1.487.2,1.427.369s.263.067.641.176a8.2,8.2,0,0,0-1.2-.08C.3.55.252.726,0,.674" transform="translate(0 0)"/></g><g transform="translate(18.398 37.721) rotate(-20.92)"><path class="c" d="M2.806,0A4.646,4.646,0,0,0,1.058.866,5.122,5.122,0,0,0,0,3.4c0,.663.124.114.208,0s-.1.76-.016,1.2.192.225.192.225,0,.934.032,1.155.144.128.144.128.173-.436.176-.176A3.962,3.962,0,0,0,.9,6.7s.09-.341.241-.337.1-.02.208.257.061.137.208.5.164.275.16.369.408-.535.706-.625a.986.986,0,0,0,.465-.273c.2-.164.263-.711.241-.225s.074.325.016.513.378-.23.674-.77a5.489,5.489,0,0,1,.513-.8,1.129,1.129,0,0,0,.241.5,1.114,1.114,0,0,0,.16-.433c.023-.224-.289.42.112-.433a3.034,3.034,0,0,0,.385-1.074s.087.255.128-.064a1.743,1.743,0,0,0-.1-.93A4.887,4.887,0,0,0,4.891,2.2s.111-.11.289.112.147-.091-.08-.433a3.508,3.508,0,0,1-.369-.818A4.056,4.056,0,0,0,3.544.08c-.235-.1-.223.039-.385,0S2.806,0,2.806,0Z" transform="translate(0 0)"/><path class="d" d="M2.806,0A4.646,4.646,0,0,0,1.058.866,5.122,5.122,0,0,0,0,3.4c0,.663.124.114.208,0s-.1.76-.016,1.2.192.225.192.225,0,.934.032,1.155.144.128.144.128.173-.436.176-.176A3.962,3.962,0,0,0,.9,6.7s.09-.341.241-.337.1-.02.208.257.061.137.208.5.164.275.16.369.408-.535.706-.625a.986.986,0,0,0,.465-.273c.2-.164.263-.711.241-.225s.074.325.016.513.378-.23.674-.77a5.489,5.489,0,0,1,.513-.8,1.129,1.129,0,0,0,.241.5,1.114,1.114,0,0,0,.16-.433c.023-.224-.289.42.112-.433a3.034,3.034,0,0,0,.385-1.074s.087.255.128-.064a1.743,1.743,0,0,0-.1-.93A4.887,4.887,0,0,0,4.891,2.2s.111-.11.289.112.147-.091-.08-.433a3.508,3.508,0,0,1-.369-.818A4.056,4.056,0,0,0,3.544.08c-.235-.1-.223.039-.385,0S2.806,0,2.806,0Zm2.4,2.237,0-.005a1.387,1.387,0,0,0-.161-.318,3.568,3.568,0,0,1-.375-.83,1.037,1.037,0,0,0-.24-.278A5.057,5.057,0,0,0,3.517.141.2.2,0,0,0,3.323.128a.253.253,0,0,1-.18.017C3.01.113,2.857.079,2.808.069a4.429,4.429,0,0,0-1.7.842A5.031,5.031,0,0,0,.067,3.4c0,.054,0,.1,0,.139A1.051,1.051,0,0,1,.155,3.36a.084.084,0,0,1,.056-.037.069.069,0,0,1,.054.014.079.079,0,0,1,.027.04A.217.217,0,0,1,.3,3.439a6.206,6.206,0,0,0-.04,1.152.95.95,0,0,0,.047.18A.21.21,0,0,0,.322,4.8l0,0,.126-.248v.278s0,.926.031,1.145A.274.274,0,0,0,.5,6.045a.078.078,0,0,0,.008.014A1.759,1.759,0,0,1,.587,5.9.327.327,0,0,1,.658,5.8a.085.085,0,0,1,.077-.016.081.081,0,0,1,.048.037A.22.22,0,0,1,.8,5.933a2.783,2.783,0,0,0,.1.56.582.582,0,0,1,.06-.1.219.219,0,0,1,.173-.1c.039,0,.066,0,.085,0a.12.12,0,0,1,.059.022.137.137,0,0,1,.042.056c.016.035.034.1.082.217.112.276.061.137.208.5a1.712,1.712,0,0,0,.136.281c.05-.057.119-.139.2-.223A1.259,1.259,0,0,1,2.4,6.8a.936.936,0,0,0,.442-.26.461.461,0,0,0,.1-.144c.049-.1.082-.2.1-.237A.1.1,0,0,1,3.1,6.106a.066.066,0,0,1,.058.007.075.075,0,0,1,.034.053,1.207,1.207,0,0,1,0,.2.862.862,0,0,0,.026.368.156.156,0,0,1,.01.055,3.154,3.154,0,0,0,.529-.714,5.527,5.527,0,0,1,.52-.812l.089-.108L4.4,5.3a1.073,1.073,0,0,0,.167.39,1.065,1.065,0,0,0,.085-.222.063.063,0,0,1-.02,0,.065.065,0,0,1-.042-.025A.068.068,0,0,1,4.57,5.4a.125.125,0,0,1,.01-.047c.017-.044.073-.165.2-.441A3.094,3.094,0,0,0,5.161,3.87l-.038-.517.164.456,0-.017A1.678,1.678,0,0,0,5.2,2.9a4.8,4.8,0,0,0-.363-.662l-.03-.046.039-.039A.177.177,0,0,1,4.969,2.1.325.325,0,0,1,5.206,2.237Z" transform="translate(0 0)"/></g><g transform="translate(20.761 36.972) rotate(-20.92)"><path class="g" d="M1.166,4.907c-.13-.176-.133-.141-.4-.192S.236,4.266.236,4.266.1,4.29.108,3.753A24.056,24.056,0,0,1,.028,1.2,6.626,6.626,0,0,1,.445,0" transform="translate(0 0)"/></g><g transform="translate(20.334 38.43) rotate(-20.92)"><path class="g" d="M2.454.956A2.781,2.781,0,0,0,1.3.635C.921.7.939.4.962.074S1.039.588.658.8.22,1,0,1.308" transform="translate(0 0)"/></g><g transform="translate(19.543 37.438) rotate(-20.92)"><path class="g" d="M1.652,0a2.664,2.664,0,0,0-.3.93A4.052,4.052,0,0,0,1.347,2,6.633,6.633,0,0,1,1.4,3.255a9.532,9.532,0,0,1-.208,1.892c-.163.33.687-1.323-.064-.914S.3,5.107,0,5.212" transform="translate(0 0)"/></g><g transform="translate(20.695 40.317) rotate(-20.92)"><path class="g" d="M0,1.165A2.379,2.379,0,0,0,.609.54c.251-.389.413-.646.706-.5s.206.042.658.273S2.556.8,2.855.7" transform="translate(0 0)"/></g><g transform="translate(6.358 37.458) rotate(-20.92)"><path class="c" d="M13.526,4.288a1.73,1.73,0,0,1-.85-.834A9.458,9.458,0,0,0,10.575.84,4.966,4.966,0,0,0,8.089.006,7.314,7.314,0,0,0,5.684.391,4.682,4.682,0,0,1,4.657.664a.528.528,0,0,0-.3.192l.192.128a10.173,10.173,0,0,1-1.107.369,1.082,1.082,0,0,0-.465.176,1.737,1.737,0,0,1,.337.208c.132.127-.149.076-.417.176a4.561,4.561,0,0,0-1.187.8c-.221.251-.16.241-.16.241a1.352,1.352,0,0,1,.5-.112c.165.025.284.038.144.08a2.919,2.919,0,0,0-.577.417,2.078,2.078,0,0,0-.658.609A5.644,5.644,0,0,1,.167,5.138C-.05,5.27.007,5.2.007,5.2a2.076,2.076,0,0,0,.706-.208c.133-.128.1.105.016.192a.37.37,0,0,0-.1.192,9.1,9.1,0,0,1,.93-.064,1.723,1.723,0,0,0,.321,0s-.061.236-.241.225a3.78,3.78,0,0,0,.914.273c.146.007.117.134-.016.16a.416.416,0,0,0-.176.064,2.252,2.252,0,0,0,.77.257,1.2,1.2,0,0,1,.513.112.189.189,0,0,1,.112.144L3.615,6.9a1.133,1.133,0,0,1,.625-.128,6.866,6.866,0,0,0,1.86.08c.4-.163.722-.257.722-.257s-.3.4-.144.433c.111.02.136-.212.722-.273a2.694,2.694,0,0,0,1.427-.4c.176-.224.208-.144.208-.144s.14.031.016.225a1.185,1.185,0,0,1,.513-.385,5.066,5.066,0,0,1,1.2-.144.54.54,0,0,1-.241.208c-.2.106.534-.036,1.042-.481s.918-.761,1.026-1.074A.683.683,0,0,1,13.526,4.288Z" transform="translate(0 0)"/><path class="d" d="M.074,5.191c.023-.012.054-.03.093-.054A5.644,5.644,0,0,0,.953,3.951a2.078,2.078,0,0,1,.658-.609,2.919,2.919,0,0,1,.577-.417c.139-.042.021-.055-.144-.08a1.352,1.352,0,0,0-.5.112s-.061.01.16-.241a4.561,4.561,0,0,1,1.187-.8c.267-.1.549-.049.417-.176a1.737,1.737,0,0,0-.337-.208,1.082,1.082,0,0,1,.465-.176A10.173,10.173,0,0,0,4.545.984L4.353.856a.528.528,0,0,1,.3-.192A4.682,4.682,0,0,0,5.684.391,7.314,7.314,0,0,1,8.089.006,4.966,4.966,0,0,1,10.575.84a9.458,9.458,0,0,1,2.1,2.614,1.72,1.72,0,0,0,.837.828l.013.006-.013-.006a.68.68,0,0,0-.917.279c-.108.313-.518.629-1.026,1.074s-1.238.588-1.042.481a.54.54,0,0,0,.241-.208,5.066,5.066,0,0,0-1.2.144,1.171,1.171,0,0,0-.511.382l0,0c-.047.074-.044.055,0,0,.12-.191-.018-.221-.018-.221s-.033-.08-.208.144a2.694,2.694,0,0,1-1.427.4c-.586.06-.61.293-.722.273C6.52,7,6.822,6.6,6.822,6.6S6.5,6.69,6.1,6.854a6.866,6.866,0,0,1-1.86-.08,1.133,1.133,0,0,0-.625.128l.144-.353A.189.189,0,0,0,3.647,6.4a1.2,1.2,0,0,0-.513-.112,2.252,2.252,0,0,1-.77-.257.416.416,0,0,1,.176-.064c.133-.027.162-.154.016-.16a3.78,3.78,0,0,1-.914-.273c.179.012.241-.225.241-.225a1.723,1.723,0,0,1-.321,0,9.1,9.1,0,0,0-.93.064.37.37,0,0,1,.1-.192C.812,5.1.845,4.865.712,4.994a1.728,1.728,0,0,1-.638.2C-.031,5.248.007,5.2.007,5.2ZM13.159,4.147a1.626,1.626,0,0,1-.545-.668A9.36,9.36,0,0,0,10.535.894,4.891,4.891,0,0,0,8.085.073,7.235,7.235,0,0,0,5.706.454,4.729,4.729,0,0,1,4.664.73a.377.377,0,0,0-.21.113L4.689,1l-.119.047a10.3,10.3,0,0,1-1.118.372,1.485,1.485,0,0,0-.341.107,1.313,1.313,0,0,1,.246.164.142.142,0,0,1,.054.1.091.091,0,0,1-.046.075.311.311,0,0,1-.107.034,1.754,1.754,0,0,0-.341.074,4.462,4.462,0,0,0-1.16.784l-.063.073.086-.025a.752.752,0,0,1,.273-.03c.072.011.135.02.174.03a.163.163,0,0,1,.058.024.074.074,0,0,1,.03.05.071.071,0,0,1-.019.062.206.206,0,0,1-.089.045.641.641,0,0,0-.174.1c-.11.082-.239.194-.382.3a2.02,2.02,0,0,0-.641.592c-.144.231-.366.657-.561.937a1.841,1.841,0,0,1-.113.147c.049-.012.1-.025.145-.04a.523.523,0,0,0,.185-.086A.144.144,0,0,1,.8,4.892a.092.092,0,0,1,.066.073.247.247,0,0,1-.006.11.374.374,0,0,1-.082.157A.3.3,0,0,0,.728,5.3a7.718,7.718,0,0,1,.838-.053,1.81,1.81,0,0,0,.3,0l.106-.022-.027.1a.5.5,0,0,1-.092.177.322.322,0,0,1-.041.04,5.681,5.681,0,0,0,.745.2c.132.006.17.085.16.15a.2.2,0,0,1-.166.143l-.027.006a1.883,1.883,0,0,0,.611.183,1.249,1.249,0,0,1,.533.117.26.26,0,0,1,.154.2l0,.017-.088.215a1.53,1.53,0,0,1,.5-.067c.259,0,.734.091,1.16.125a1.665,1.665,0,0,0,.674-.04c.4-.165.728-.259.728-.259L7,6.478l-.119.16a1.543,1.543,0,0,0-.154.255.322.322,0,0,0-.02.058.1.1,0,0,0,0,.013l.013-.01c.017-.012.035-.027.057-.045a1.1,1.1,0,0,1,.623-.216A5.673,5.673,0,0,0,8.4,6.514a.787.787,0,0,0,.377-.2c.1-.133.17-.17.206-.18a.1.1,0,0,1,.085.013l.01.008a.158.158,0,0,1,.078.073,1.114,1.114,0,0,1,.39-.241,5.173,5.173,0,0,1,1.224-.148h.1l-.042.094a.312.312,0,0,1-.058.082,2.418,2.418,0,0,0,.755-.432c.3-.266.571-.485.76-.685a1.064,1.064,0,0,0,.247-.361.557.557,0,0,1,.3-.318A.818.818,0,0,1,13.159,4.147Z" transform="translate(0 0)"/></g><g transform="translate(9.51 39.936) rotate(-20.92)"><path class="g" d="M.273,1.474A4.827,4.827,0,0,1,1.187.656,2.277,2.277,0,0,0,1.8.159c.19-.17-.061-.256-.257.016s.081.316-.465.289S.505.812,0,.848" transform="translate(0 0)"/></g><g transform="translate(10.744 38.312) rotate(-20.92)"><path class="g" d="M0,0S.756.2,1.187.353s.762.478,1.058.353S2.224.644,1.8.978.909,1.85.625,2.069"/></g><g transform="translate(12.041 36.631) rotate(-20.92)"><path class="g" d="M0,4.041A10.371,10.371,0,0,1,1.251,2.726C1.75,2.345,2.2,1.6,2.566,1.62s.061-.1-.16-.225.054.181-.128.144S2.393,1.521,1.6.882A4.858,4.858,0,0,0,.208,0" transform="translate(0 0)"/></g><g transform="translate(13.814 35.565) rotate(-20.92)"><path class="g" d="M2.213,2.16A1.885,1.885,0,0,0,1.572,1.1,9.291,9.291,0,0,0,.257.011,11.021,11.021,0,0,1,1.3.652c.246.235.849,1.137.722,1.491s-.353.384-.85.8S.205,3.917,0,4.068" transform="translate(0 0)"/></g><g transform="translate(8.454 38.386) rotate(-20.92)"><path class="g" d="M0,2.737a3.721,3.721,0,0,0,1.235-.545c.433-.355.624-.279,1.171-.369s1.767-.5,2.309-.561a4.112,4.112,0,0,1,1.94-.112,19.023,19.023,0,0,1,2.406.69c.566.228,2.118.606,2.47.69l.05.011a6.438,6.438,0,0,0-1.734-.251c-.443.1-.362.21-.85.561s-.8.637-1.01.77S10.005,2.6,9.847,1.9c-.065-.285-.233-.745-.146-.564S9.569,1.071,9.4.8C9.108.332,9.069.153,8.82.01s.8,1.226.8,1.427" transform="translate(0 0)"/></g><g transform="translate(19.499 36.768) rotate(-20.92)"><path class="d" d="M.6,0A2.1,2.1,0,0,0,.925.208c.113.047.42.085.513.176a1.146,1.146,0,0,0,.529.16.485.485,0,0,1,.225.064,2.186,2.186,0,0,1-.433.016C1.654.6,1.6.541,1.486.561s-.1-.032-.1-.032A.507.507,0,0,0,1.1.4C.877.354.654.126.4.273S.117.389.027.577.079.273.348.192.6,0,.6,0Z" transform="translate(0 0)"/><path class="d" d="M.6,0A2.1,2.1,0,0,0,.925.208c.113.047.42.085.513.176a1.146,1.146,0,0,0,.529.16.485.485,0,0,1,.225.064,2.186,2.186,0,0,1-.433.016C1.654.6,1.6.541,1.486.561s-.1-.032-.1-.032A.507.507,0,0,0,1.1.4C.877.354.654.126.4.273S.117.389.027.577.079.273.348.192.6,0,.6,0ZM.623.053C.6.1.534.17.357.223A.393.393,0,0,0,.175.357C.222.331.285.3.38.245A.43.43,0,0,1,.773.235,2.437,2.437,0,0,0,1.108.37a.524.524,0,0,1,.307.14l.01.013L1.419.531a.191.191,0,0,0,.062,0,.274.274,0,0,1,.156.017.876.876,0,0,0,.129.047,1.268,1.268,0,0,0,.29,0C2.03.586,2,.581,1.964.576A2.134,2.134,0,0,1,1.606.5a.493.493,0,0,1-.19-.1.452.452,0,0,0-.175-.08C1.12.292.981.266.913.238A1.811,1.811,0,0,1,.623.053Z" transform="translate(0 0)"/></g><g transform="translate(19.35 18.16) rotate(-20.92)"><path class="d" d="M0,.083A3.16,3.16,0,0,1,.481.42C.68.6.589.623.77.628s.4.069.513.064.4-.387.529-.641-.28.52-.337.609-.019.1.225.1.289.126.625-.064A4.652,4.652,0,0,0,3.031.276a8.637,8.637,0,0,1-.882.577.932.932,0,0,1-.545,0,.883.883,0,0,0-.433-.08c-.155-.009-.658,0-.658,0S.665.821.385.516.147.15,0,.083Z" transform="translate(0 0)"/><path class="d" d="M2.816.424c.146-.108.247-.184.215-.148a.955.955,0,0,1-.215.148,3.188,3.188,0,0,1-.667.429.932.932,0,0,1-.545,0,.883.883,0,0,0-.433-.08C1.039.765.66.77.546.772a.049.049,0,0,1-.033,0H.546C.566.76.561.708.385.516.159.27.143.183.068.123L0,.083a.318.318,0,0,1,.068.04,2.952,2.952,0,0,1,.413.3C.68.6.589.623.77.628s.4.069.513.064c.089,0,.284-.236.425-.458.095-.177.168-.312.1-.183a2.04,2.04,0,0,1-.1.183c-.092.172-.2.382-.233.426-.056.09-.019.1.225.1s.289.126.625-.064C2.514.586,2.686.5,2.816.424ZM1.483.585,1.446.623a.534.534,0,0,1-.1.08.141.141,0,0,1-.063.021C1.169.729.95.666.769.66.662.656.637.644.608.609A.967.967,0,0,0,.46.443,2.407,2.407,0,0,0,.209.251,2.378,2.378,0,0,0,.408.5a1.2,1.2,0,0,1,.155.2.168.168,0,0,1,.02.05c.144,0,.469-.006.589,0A1.111,1.111,0,0,1,1.45.766.06.06,0,0,1,1.43.746.059.059,0,0,1,1.422.7.177.177,0,0,1,1.449.644C1.455.633,1.468.612,1.483.585ZM2.36.709,2.341.72a.547.547,0,0,1-.418.1A.944.944,0,0,0,1.7.788a1.5,1.5,0,0,1-.191,0c.031.01.066.023.106.04a.571.571,0,0,0,.341.03A1.681,1.681,0,0,1,2.147.822.183.183,0,0,0,2.2.8,1.56,1.56,0,0,0,2.36.709Z" transform="translate(0 0)"/></g><g transform="translate(0 10.787) rotate(-20.92)"><path class="c" d="M13.678,5.139s.373.468-.154.433c-.4-.026-.312.154-.817.745-.272.318.864-1.146.2-1.387-.32-.116-.391-.031-.658-.369a.926.926,0,0,0-1.139-.208,4.721,4.721,0,0,1-1.411.4,3.682,3.682,0,0,1-2.245-.4,3.924,3.924,0,0,0-2.2-.449,2.7,2.7,0,0,1-1.3-1.058,2.26,2.26,0,0,0-1.507-.738c-.445,0-2.443.341-2.438-.914C.02.059-.269,2,1.474,1.851a5.514,5.514,0,0,1,3.384.69,12.391,12.391,0,0,0,3.769.609,6.519,6.519,0,0,1,3.512.417c1.1.571,2.033,1.093,2.2.5s.353-.433.353-.433l.449.5s-.267-.554.561-1.235a5.184,5.184,0,0,0,1.572-1.812c.441-.806.611-.86.914-1.058s-.815.95-.882,1.6-.6.719-1.026,1.347S15.461,4.233,15.859,4s.561-.367.994-.593-.607.449-.866.962-.537.768-.994.738-.919.217-1.074,0C13.622,4.69,13.678,5.139,13.678,5.139Z" transform="translate(0 0)"/><path class="d" d="M.006.882a1.232,1.232,0,0,0,1.468.969,5.514,5.514,0,0,1,3.384.69,12.391,12.391,0,0,0,3.769.609,6.519,6.519,0,0,1,3.512.417c1.1.571,2.033,1.093,2.2.5s.353-.433.353-.433l.449.5s-.267-.554.561-1.235a5.184,5.184,0,0,0,1.572-1.812c.441-.806.611-.86.914-1.058s-.815.95-.882,1.6-.6.719-1.026,1.347S15.462,4.233,15.859,4s.561-.367.994-.593-.607.449-.866.962-.537.768-.994.738-.919.217-1.074,0c-.3-.416-.241.032-.241.032s.373.468-.154.433c-.4-.026-.312.154-.817.745-.272.318.864-1.146.2-1.387-.32-.116-.391-.031-.658-.369a.926.926,0,0,0-1.139-.208,4.721,4.721,0,0,1-1.411.4,3.682,3.682,0,0,1-2.245-.4,3.924,3.924,0,0,0-2.2-.449,2.7,2.7,0,0,1-1.3-1.058,2.26,2.26,0,0,0-1.507-.738C2.007,2.1.01,2.448.015,1.193.016,1.033.011.934.006.882Zm18.01-.67a2.316,2.316,0,0,0-.687.9,5.24,5.24,0,0,1-1.588,1.832C14.963,3.585,15.2,4.1,15.2,4.1l.2.418-.754-.834a.071.071,0,0,0-.069.021.818.818,0,0,0-.175.378.408.408,0,0,1-.162.242.591.591,0,0,1-.442.053,7.777,7.777,0,0,1-1.688-.751,6.435,6.435,0,0,0-3.469-.411A12.506,12.506,0,0,1,4.834,2.6,5.464,5.464,0,0,0,1.48,1.918,1.485,1.485,0,0,1,.4,1.651a1.216,1.216,0,0,1-.31-.364.8.8,0,0,0,.675.7,5.962,5.962,0,0,0,1.693.049,2.455,2.455,0,0,1,1.029.32,1.518,1.518,0,0,1,.534.449,3.465,3.465,0,0,0,.736.766,1.163,1.163,0,0,0,.513.262,3.994,3.994,0,0,1,2.23.461A3.61,3.61,0,0,0,9.7,4.687a4.651,4.651,0,0,0,1.388-.4.987.987,0,0,1,1.213.23.591.591,0,0,0,.388.278,2.113,2.113,0,0,1,.24.069.408.408,0,0,1,.247.5,1.486,1.486,0,0,1-.092.331l.017-.022a.412.412,0,0,1,.171-.139.569.569,0,0,1,.254-.027.424.424,0,0,0,.156-.012.08.08,0,0,0,.048-.033.147.147,0,0,0-.012-.121.725.725,0,0,0-.093-.159l-.012-.015,0-.019a.656.656,0,0,1,0-.16.167.167,0,0,1,.051-.1.108.108,0,0,1,.127-.008.607.607,0,0,1,.182.189.141.141,0,0,0,.088.054.523.523,0,0,0,.165,0A4.289,4.289,0,0,1,15,5.04c.43.028.687-.218.93-.7a2.637,2.637,0,0,1,.563-.651c-.19.116-.348.223-.6.37a.41.41,0,0,1-.139.057.11.11,0,0,1-.093-.025A.114.114,0,0,1,15.626,4a.652.652,0,0,1,.078-.23,8.153,8.153,0,0,1,.517-.832,3.561,3.561,0,0,1,.659-.676.927.927,0,0,0,.356-.64,1.768,1.768,0,0,1,.258-.652A8.324,8.324,0,0,1,18.017.213Z" transform="translate(0 0)"/></g><g transform="matrix(-0.346, 0.938, -0.938, -0.346, 18.785, 2.928)"><path class="c" d="M8.092.176s-.018-.2-.31-.173a.343.343,0,0,0-.309.375c.019.281.443.218.281.553-.086.178-.339-.166-.511.151a.529.529,0,0,1-.667.225,2.839,2.839,0,0,0-.835-.232,2.219,2.219,0,0,0-1.329.232,2.364,2.364,0,0,1-1.3.26,1.592,1.592,0,0,0-.769.613,1.348,1.348,0,0,1-.892.428c-.264,0-1.446-.2-1.443.53,0,.657-.168-.468.864-.381a3.319,3.319,0,0,0,2-.4A7.474,7.474,0,0,1,5.105,2a3.934,3.934,0,0,0,2.078-.242c.65-.331,1.2-.634,1.3-.288s.209.251.209.251l.266-.288s-.158.321.332.716a3.023,3.023,0,0,1,.93,1.05c.261.467.362.5.541.613s-.482-.551-.522-.929-.354-.417-.607-.781-.482-.73-.247-.595.332.212.588.344-.359-.26-.512-.558S9.22.987,8.982.857c-.3-.163-.253-.292-.409-.3S8.092.176,8.092.176Z" transform="translate(0 0)"/><path class="d" d="M0,3.318c0-.03.006-.087.005-.18,0-.727,1.179-.527,1.443-.53a1.348,1.348,0,0,0,.892-.428,1.592,1.592,0,0,1,.769-.613,2.364,2.364,0,0,0,1.3-.26,2.219,2.219,0,0,1,1.329-.232,2.839,2.839,0,0,1,.835.232.529.529,0,0,0,.667-.225c.172-.317.425.027.511-.151C7.917.6,7.492.659,7.474.378A.343.343,0,0,1,7.782,0c.292-.029.31.173.31.173s.318.375.481.382.111.136.409.3c.238.13.326.143.479.44s.769.689.512.558-.353-.209-.588-.344-.007.231.247.595.568.4.607.781.7,1.045.522.929-.28-.146-.541-.613a3.023,3.023,0,0,0-.93-1.05c-.49-.395-.332-.716-.332-.716l-.266.288s-.112.095-.209-.251-.651-.043-1.3.288A3.934,3.934,0,0,1,5.105,2a7.474,7.474,0,0,0-2.23.353,3.319,3.319,0,0,1-2,.4A.724.724,0,0,0,0,3.318ZM.05,3.085a.707.707,0,0,1,.184-.213.892.892,0,0,1,.641-.154,3.289,3.289,0,0,0,1.985-.4,7.54,7.54,0,0,1,2.251-.355,3.886,3.886,0,0,0,2.054-.238,4.656,4.656,0,0,1,1-.435.355.355,0,0,1,.261.03.237.237,0,0,1,.1.141.471.471,0,0,0,.1.219.044.044,0,0,0,.042.012l.445-.482-.119.242s-.139.3.322.668a3.056,3.056,0,0,1,.94,1.062,1.345,1.345,0,0,0,.407.522,4.824,4.824,0,0,1-.309-.437,1.014,1.014,0,0,1-.153-.378.534.534,0,0,0-.21-.371,2.085,2.085,0,0,1-.39-.392,4.691,4.691,0,0,1-.306-.482.372.372,0,0,1-.046-.134.066.066,0,0,1,.021-.054.06.06,0,0,1,.039-.015.2.2,0,0,1,.1.034c.148.085.241.147.353.214a1.533,1.533,0,0,1-.332-.376c-.148-.287-.234-.3-.463-.424A.849.849,0,0,1,8.694.674C8.657.63,8.635.6,8.571.6A.406.406,0,0,1,8.374.5,2.368,2.368,0,0,1,8.062.2L8.054.191V.179a.153.153,0,0,0-.059-.1A.288.288,0,0,0,7.786.042a.3.3,0,0,0-.273.333A.206.206,0,0,0,7.6.527c.034.028.072.05.106.074a.286.286,0,0,1,.114.127A.27.27,0,0,1,7.79.947c-.044.092-.121.085-.213.059A.312.312,0,0,0,7.391.988a.216.216,0,0,0-.113.112.567.567,0,0,1-.714.244,2.8,2.8,0,0,0-.822-.23,2.178,2.178,0,0,0-1.307.225,2.406,2.406,0,0,1-1.319.267.694.694,0,0,0-.3.152,2.03,2.03,0,0,0-.436.444.892.892,0,0,1-.316.26,1.472,1.472,0,0,1-.608.185,3.6,3.6,0,0,0-1,.029A.469.469,0,0,0,.05,3.085Z" transform="translate(0 0)"/></g><g transform="translate(14.54 3.704) rotate(-20.92)"><path class="c" d="M3.806,6.483s-.562-.615-.834-.674c-.381-.082-1.154.038-1.6-.321s-.69-.561-.69-.561-.491.277-.658.353A7.964,7.964,0,0,1,1.464,4.3c.764-.433.962-.513.962-.513.7-.179,1.058.158,1.556.225.884.118,2.518.652,3.416-1.074S9.355-.038,10.269,0c.512.024-.945-.349-2.309,2.534C6.7,5.209,5.259,5.46,4.7,5.457a6.224,6.224,0,0,0-1.215.078c-.081.023-.051.147-.051.147l.51.738Z" transform="translate(0 0)"/><path class="d" d="M10.312.006c.376,0-1.031-.259-2.352,2.533C6.7,5.209,5.259,5.46,4.7,5.457a6.224,6.224,0,0,0-1.215.078c-.081.023-.051.147-.051.147l.51.738-.141.064s-.562-.615-.834-.674c-.381-.082-1.154.038-1.6-.321s-.69-.561-.69-.561-.491.277-.658.353A7.964,7.964,0,0,1,1.464,4.3c.764-.433.962-.513.962-.513.7-.179,1.058.158,1.556.225.884.118,2.518.652,3.416-1.074S9.355-.038,10.269,0ZM9.618.246a2.62,2.62,0,0,0-.452.326,8.505,8.505,0,0,0-1.709,2.4A2.186,2.186,0,0,1,5.307,4.25a10.63,10.63,0,0,1-1.333-.17A3.019,3.019,0,0,1,3.4,3.918a1.537,1.537,0,0,0-.951-.065c-.03.013-.252.112-.951.508-.273.155-.557.334-.8.5l.025.021s.239.2.688.56a1.454,1.454,0,0,0,.792.25c.3.025.592.017.784.058a.945.945,0,0,1,.327.184,5.071,5.071,0,0,1,.509.475l.025-.011-.472-.682,0-.012a.3.3,0,0,1,0-.115.139.139,0,0,1,.1-.111A6.31,6.31,0,0,1,4.7,5.39c.546,0,1.952-.253,3.195-2.88A5.458,5.458,0,0,1,9.618.246Z" transform="translate(0 0)"/></g><g transform="translate(14.285 11.785) rotate(-126.905)"><path class="c" d="M2.734.542A3.8,3.8,0,0,0,3,.077C3.019.037,2.96,0,2.948,0,2.5.2,2.522.389,2.365.44,2.07.535,1.429.467,1,.611A4.629,4.629,0,0,0,.368.864S.338.94.023.86c-.141-.036.371.41.977.754a4.5,4.5,0,0,0,.931.43,3.367,3.367,0,0,1,1.234-.178c.707.028,2-.518,2.71.853S7.429,5.08,8.154,5.046c.406-.019-.75.277-1.832-2.01C5.319.917,4.179.717,3.739.72A3.943,3.943,0,0,1,2.734.542Z" transform="translate(0 0)"/><path class="d" d="M8.188,5.045H8.154c-.725.034-1.565-.958-2.278-2.329s-2-.825-2.71-.853a3.367,3.367,0,0,0-1.234.178A4.5,4.5,0,0,1,1,1.613C.394,1.269-.117.824.023.86c.314.08.344,0,.344,0A4.629,4.629,0,0,1,1,.611C1.429.467,2.07.535,2.365.44,2.522.389,2.5.2,2.948,0,2.96,0,3.019.037,3,.077a3.8,3.8,0,0,1-.267.464A3.943,3.943,0,0,0,3.739.72c.44,0,1.58.2,2.583,2.316C7.37,5.25,8.487,5.043,8.188,5.045Zm-.55-.191a4.331,4.331,0,0,1-1.364-1.8C5.288.974,4.172.77,3.739.773A4.019,4.019,0,0,1,2.718.592L2.65.57,2.69.512a3.775,3.775,0,0,0,.259-.45l0,0a.993.993,0,0,0-.4.3A.363.363,0,0,1,2.381.49a2.17,2.17,0,0,1-.5.062,3.5,3.5,0,0,0-.871.109A4.859,4.859,0,0,0,.405.9.137.137,0,0,1,.324.944.564.564,0,0,1,.129.937a5.414,5.414,0,0,0,.9.63,4.8,4.8,0,0,0,.9.42,3.469,3.469,0,0,1,1.238-.175c.282.011.657-.07,1.05-.083a1.668,1.668,0,0,1,1.7.964A6.748,6.748,0,0,0,7.28,4.6,2.079,2.079,0,0,0,7.638,4.854Z" transform="translate(0 0)"/></g><g transform="translate(2.893 11.614) rotate(-20.92)"><path class="d" d="M11.207,2.532a5.015,5.015,0,0,0-2-.433c-.745.109-2.175.892-2.919.577a15.477,15.477,0,0,0-2.229-.77c-.455-.089-1.012.078-1.62-.577A3.562,3.562,0,0,0,.206.062C-.431.116.5-.28,1.762.431a10.522,10.522,0,0,0,3.785.93,10.506,10.506,0,0,1,2.71-.016,4.787,4.787,0,0,1,1.668.529C10.517,2.2,11,2.4,11.207,2.532Z" transform="translate(0 0)"/><path class="d" d="M11.207,2.532a5.015,5.015,0,0,0-2-.433c-.745.109-2.175.892-2.919.577a15.477,15.477,0,0,0-2.229-.77c-.455-.089-1.012.078-1.62-.577A3.562,3.562,0,0,0,.206.062C-.431.116.5-.28,1.762.431a10.522,10.522,0,0,0,3.785.93,10.506,10.506,0,0,1,2.71-.016,4.787,4.787,0,0,1,1.668.529C10.517,2.2,11,2.4,11.207,2.532Zm-.889-.372c-.133-.068-.277-.143-.427-.227A4.745,4.745,0,0,0,8.241,1.41a10.445,10.445,0,0,0-2.7.018A10.611,10.611,0,0,1,1.729.489,3.484,3.484,0,0,0,1,.178c.041.018.081.038.122.059A5.176,5.176,0,0,1,2.484,1.284a1.457,1.457,0,0,0,.986.5c.213.023.414.018.6.054a15.552,15.552,0,0,1,2.242.774A1.8,1.8,0,0,0,7.4,2.576c.646-.169,1.343-.477,1.792-.543A3.044,3.044,0,0,1,10.319,2.159Z" transform="translate(0 0)"/></g><g transform="matrix(-0.346, 0.938, -0.938, -0.346, 17.728, 4.056)"><path class="d" d="M7.676.124c.013-.013.095-.156-.259-.118a4.75,4.75,0,0,0-.6.1c-.426.141-1.08.649-1.421.769C4.973,1.022,4.159.448,3.719.63A9.292,9.292,0,0,1,2.4,1.076c-.269.052-.6-.045-.959.335a2.12,2.12,0,0,1-1.319.734c-.377-.031.174.2.921-.214a6.336,6.336,0,0,1,2.24-.539c.245-.012.987.037,1.6.009a3.066,3.066,0,0,0,1.49-.388c.134-.073.44-.232.65-.374A5.335,5.335,0,0,0,7.676.124Z" transform="translate(0 0)"/><path class="d" d="M7.676.124c.013-.013.095-.156-.259-.118a4.75,4.75,0,0,0-.6.1c-.426.141-1.08.649-1.421.769C4.973,1.022,4.159.448,3.719.63A9.292,9.292,0,0,1,2.4,1.076c-.269.052-.6-.045-.959.335a2.12,2.12,0,0,1-1.319.734c-.377-.031.174.2.921-.214a6.336,6.336,0,0,1,2.24-.539c.245-.012.987.037,1.6.009a3.066,3.066,0,0,0,1.49-.388c.134-.073.44-.232.65-.374A5.335,5.335,0,0,0,7.676.124ZM.6,2.077A2.093,2.093,0,0,0,1.024,1.9,6.391,6.391,0,0,1,3.28,1.353c.245-.012.987.037,1.6.009A3.032,3.032,0,0,0,6.358.979C6.491.906,6.795.749,7,.608A5.3,5.3,0,0,0,7.648.1s.013-.026,0-.037A.377.377,0,0,0,7.422.045a4.675,4.675,0,0,0-.6.1C6.4.283,5.746.791,5.405.911a.654.654,0,0,1-.312.016,3.552,3.552,0,0,1-.542-.15A2.779,2.779,0,0,0,4.017.639a.577.577,0,0,0-.283.028,9.337,9.337,0,0,1-1.327.448c-.109.021-.227.018-.353.031a.871.871,0,0,0-.584.292,3.054,3.054,0,0,1-.806.607Z" transform="translate(0 0)"/></g><g transform="translate(16.186 7.454) rotate(-20.92)"><path class="i" d="M0,1.062A10.345,10.345,0,0,1,1.421.147c.318-.1.555.005.646-.128s.465.462.092.433S1.764.272,1.774.4c.037.488.169-.43,1.512.1A3,3,0,0,0,5.539.773" transform="translate(0 0)"/></g><g transform="translate(14.738 9) rotate(-20.92)"><path class="d" d="M.124.134S.133-.1.317.054s.431.6.609.738.208.231.385-.016-.153.576-.433.273S.378.121.252.247.126.534.028.712.124.439.124.134Z" transform="translate(0 0)"/><path class="d" d="M.124.134S.133-.1.317.054s.431.6.609.738.208.231.385-.016-.153.576-.433.273S.378.121.252.247.126.534.028.712.124.439.124.134ZM.6.512A2.933,2.933,0,0,0,.927,1a.123.123,0,0,0,.082.047.137.137,0,0,0,.082-.028A.327.327,0,0,0,1.125.995a.185.185,0,0,1-.086-.03C1,.939.952.895.886.845A1.744,1.744,0,0,1,.6.512ZM.345.177A.764.764,0,0,0,.273.1.235.235,0,0,0,.228.073L.211.067A.145.145,0,0,0,.2.091.2.2,0,0,0,.191.136c0,.026,0,.054,0,.082L.205.2A.111.111,0,0,1,.345.177Z" transform="translate(0 0)"/></g><g transform="translate(12.344 11.252) rotate(-20.92)"><path class="d" d="M1.216,1.168a.538.538,0,0,0,.327-.13c.184-.147.218-.254.261-.2a.66.66,0,0,1,.061.224A1.148,1.148,0,0,1,2.2.971c.232-.038.474.3.476.03s.056-.166.167-.225a3.979,3.979,0,0,1,.38-.12c.333-.091.734-.188.643-.2-.025,0-.179.039-.358.05-.1.006-.209-.066-.288,0A.292.292,0,0,1,2.87.556C2.709.42,2.5.6,2.561.5c.031-.053-.1-.1-.147-.2C2.335.113,2.3-.121,2.3.072c0,.09.106.45.064.539s-.241.059-.348.042a.927.927,0,0,0-.375.06,1.346,1.346,0,0,1-.428.171C.959.936.7.8.534.852A2.256,2.256,0,0,0,0,1.236c.6-.439.679-.131.8-.1A.818.818,0,0,0,1.216,1.168Z" transform="translate(0 0)"/></g><g transform="translate(15.461 7.362) rotate(-20.92)"><path class="d" d="M3.126.043s.012-.151-.584.112C2.431.2,2.3.277,1.991.444A9.488,9.488,0,0,0,.82,1.23a2.366,2.366,0,0,1-.609.385c-.162.045-.167-.1,0-.369s-.373.525-.16.5.364-.2.625-.3.347-.285.465-.192a4.429,4.429,0,0,0,.786.561c.248.1-.7-.609-.754-.641s.116-.152.353-.3A9.851,9.851,0,0,1,3.126.043Z" transform="translate(0 0)"/></g></g><g transform="translate(41.974 25.249)"><path class="j" d="M131.62,124.827v11.257" transform="translate(-131.62 -124.827)"/></g></g></g></svg>