<svg xmlns="http://www.w3.org/2000/svg" xmlns:xlink="http://www.w3.org/1999/xlink" width="97" height="25" viewBox="0 0 97 25"><defs><style>.a{fill:#fff;stroke:#707070;}.b{clip-path:url(#a);}</style><clipPath id="a"><rect class="a" width="97" height="25"/></clipPath></defs><g class="b"><g transform="translate(1.635 0.197)"><g transform="translate(8.852 5.135)"><path d="M144.482,726.308a8.1,8.1,0,0,0-7.2,0,6.074,6.074,0,0,0-2.444,2.371,6.969,6.969,0,0,0-.872,3.489,7.059,7.059,0,0,0,.872,3.515,6.081,6.081,0,0,0,2.444,2.393,8.068,8.068,0,0,0,7.2,0,6.081,6.081,0,0,0,2.444-2.393,7.059,7.059,0,0,0,.872-3.515,6.969,6.969,0,0,0-.872-3.489A6.074,6.074,0,0,0,144.482,726.308Zm-6.507,2.794a3.82,3.82,0,0,1,2.917-1.2,3.9,3.9,0,0,1,2.917,1.2,4.434,4.434,0,0,1,1.122,3.119,4.387,4.387,0,0,1-1.122,3.115,4.153,4.153,0,0,1-5.834,0,4.3,4.3,0,0,1-1.147-3.115A4.343,4.343,0,0,1,137.975,729.1Z" transform="translate(-133.961 -725.463)"/></g><g transform="translate(0 1.047)"><path d="M18.952,60.93V62.7H8.455V45.25H11.4V60.036h6.8A5.962,5.962,0,0,0,18.952,60.93Z" transform="translate(-8.455 -45.25)"/></g><path d="M146.028,725.56l5.136,13.265h2.967l5.086-13.265H156.35l-3.64,10.449-3.69-10.449Z" transform="translate(-125.206 -720.328)"/><path d="M168.74,727.232a6.005,6.005,0,0,0-4.712-1.769,6.944,6.944,0,0,0-3.466.845,6.148,6.148,0,0,0-2.393,2.4,7.047,7.047,0,0,0-.847,3.515,6.957,6.957,0,0,0,.847,3.489,6.074,6.074,0,0,0,2.393,2.367,7.1,7.1,0,0,0,3.54.849,7.748,7.748,0,0,0,3.092-.6,6.655,6.655,0,0,0,2.393-1.645l-1.521-1.619a4.97,4.97,0,0,1-1.7,1.144,5.114,5.114,0,0,1-2.044.4,4.06,4.06,0,0,1-2.668-.9,4.13,4.13,0,0,1-1.446-2.42h10.022c.025-.5.05-.845.05-1.07A7.375,7.375,0,0,0,168.74,727.232Zm-1,3.964h-7.579a3.953,3.953,0,0,1,1.271-2.517,3.771,3.771,0,0,1,2.618-.924,3.688,3.688,0,0,1,2.618.924A3.462,3.462,0,0,1,167.743,731.2Z" transform="translate(-125.206 -720.328)"/><g transform="translate(57.001)"><path d="M68.144,51.733a4.924,4.924,0,0,1,1.92-1.8,5.9,5.9,0,0,1,2.718-.6,6.376,6.376,0,0,1,3.316.848,5.88,5.88,0,0,1,2.219,2.394l.007.014,0,0,.006.011,0,0,.007.015v0l.006.013,0,0,.006.011,0,0,.007.014v0l.006.012,0,0,.006.011,0,0,.007.015,0,0,.006.012,0,0,.006.012,0,0,.007.015,0,0,.005.011,0,0,.006.012v0l.007.015,0,0,0,.011,0,0,.006.013v0l.007.015,0,0,0,.011,0,0,.007.015v0l.006.014,0,0,0,.011,0,0,.006.015v0l.006.013,0,0,.005.012,0,0,.007.015v0l.006.013,0,0,.006.014v0l.007.016h0l.006.015v0l.014.033a7.11,7.11,0,0,0-.593,2.933,7.219,7.219,0,0,0,.622,3.021l-.014.035h0l-.007.016h0l-.007.017-.007.016v0l-.007.016h0l-.007.016v0l-.006.014v0l-.007.016-.007.016,0,0-.006.013v0l-.007.016v0l-.006.013,0,0-.007.015-.007.015,0,0-.006.012,0,0-.007.015v0l-.006.013,0,0-.006.014v0l-.007.015,0,0-.006.012,0,0-.007.015v0l-.006.013,0,0-.006.013v0l-.007.015,0,0-.006.012,0,0-.007.015v0l-.007.014,0,0-.006.012,0,0-.007.015,0,0-.006.012,0,0-.008.015a5.6,5.6,0,0,1-2.219,2.344,5.8,5.8,0,0,1-2.169.767l-.01,0-.014,0-.15.02-.014,0-.014,0q-.123.015-.248.026h-.057q-.12.009-.242.015h-.027l-.1,0-.2,0h-.044q-.27,0-.529-.018l-.024,0-.037,0-.1-.009L72,62.758l-.023,0h0a5.365,5.365,0,0,1-1.91-.575,4.688,4.688,0,0,1-1.92-1.77V62.7H65.277V44.2h2.867Zm7.9,2.943a4.626,4.626,0,0,0-.325-.848,3.927,3.927,0,0,0-1.446-1.546,4.272,4.272,0,0,0-4.189,0A3.634,3.634,0,0,0,68.668,53.8a4.7,4.7,0,0,0-.524,2.219q0,.068,0,.134v.019q0,.163.016.32c0,.025,0,.049.006.074l0,.042q0,.051.011.1.015.128.036.252c.007.044.015.087.024.13l0,.013.009.044,0,.009,0,.013,0,.013,0,.013,0,.01a3.952,3.952,0,0,0,1.023,1.928,3.732,3.732,0,0,0,2.892,1.222,3.984,3.984,0,0,0,2.094-.549,3.767,3.767,0,0,0,1.446-1.546,5.112,5.112,0,0,0,.5-2.244V56q0-.2-.016-.4-.007-.1-.018-.191l0-.018,0-.012-.005-.042q-.016-.127-.039-.251l0-.014,0-.016-.012-.06,0-.011,0-.017,0-.013-.005-.024c-.009-.04-.018-.081-.028-.12S76.06,54.718,76.048,54.675Z" transform="translate(-65.277 -44.203)"/></g><g transform="translate(70.129 5.135)"><path d="M205.415,726.308a8.1,8.1,0,0,0-7.205,0,6.071,6.071,0,0,0-2.443,2.371,6.965,6.965,0,0,0-.873,3.489,7.055,7.055,0,0,0,.873,3.515,6.077,6.077,0,0,0,2.443,2.393,8.069,8.069,0,0,0,7.205,0,6.078,6.078,0,0,0,2.443-2.393,7.059,7.059,0,0,0,.872-3.515,6.969,6.969,0,0,0-.872-3.489A6.071,6.071,0,0,0,205.415,726.308Zm-6.507,2.794a3.82,3.82,0,0,1,2.917-1.2,3.9,3.9,0,0,1,2.917,1.2,4.434,4.434,0,0,1,1.122,3.119,4.387,4.387,0,0,1-1.122,3.115,4.153,4.153,0,0,1-5.834,0,4.3,4.3,0,0,1-1.147-3.115A4.341,4.341,0,0,1,198.907,729.1Z" transform="translate(-194.893 -725.463)"/></g><g transform="translate(82.243 5.232)"><path d="M212.769,742.991a5.2,5.2,0,0,0,1.72-2.345l6.034-15.086h-2.867l-3.69,10.049L210,725.56h-2.967l5.485,13.066-.449,1a2.17,2.17,0,0,1-2.019,1.47,2.4,2.4,0,0,1-.848-.15,4.06,4.06,0,0,1-.872-.5l-1.222,2.218a5.028,5.028,0,0,0,1.446.845,4.664,4.664,0,0,0,1.62.277A4.351,4.351,0,0,0,212.769,742.991Z" transform="translate(-207.035 -725.56)"/></g><g transform="translate(46.217 5.134)"><path d="M4.712.7A4.893,4.893,0,0,0,2.867,2.741V.1H0V13.362H2.867V6.432a3.935,3.935,0,0,1,1.4-2.767,4.439,4.439,0,0,1,3.191-.924V0A5.15,5.15,0,0,0,4.712.7Z"/></g></g></g></svg>