<?xml version="1.0" encoding="UTF-8" standalone="no"?>
<!DOCTYPE svg PUBLIC "-//W3C//DTD SVG 1.1//EN" "http://www.w3.org/Graphics/SVG/1.1/DTD/svg11.dtd">
<svg width="100%" height="100%" viewBox="0 0 156 156" version="1.1" xmlns="http://www.w3.org/2000/svg" xmlns:xlink="http://www.w3.org/1999/xlink" xml:space="preserve" xmlns:serif="http://www.serif.com/" style="fill-rule:evenodd;clip-rule:evenodd;stroke-linejoin:round;stroke-miterlimit:2;">
    <g id="Shape-3" serif:id="Shape 3" transform="matrix(3.54661,0,0,3.54661,-9372.28,-222.124)">
        <path d="M2664.49,76.083C2662.18,70.77 2658.12,68.171 2654.14,68.005C2648.52,67.772 2643.06,72.412 2643,81.137C2642.94,89.315 2647.36,93.168 2652,97C2658.88,102.678 2660.48,102.554 2664.52,104.996C2669.75,102.83 2670.68,102.428 2676,98C2683.53,91.73 2685.88,86.784 2686,81.048C2686.18,72.655 2681.04,68.236 2675.55,68.166C2671.28,68.112 2666.81,70.692 2664.49,76.083ZM2664.65,103.143C2669.03,101.322 2670.09,100.76 2674.94,96.721C2681.94,90.889 2684.22,86.348 2684.34,81.013C2684.49,73.81 2680.24,69.889 2675.53,69.83C2671.84,69.783 2668.03,72.081 2666.02,76.741L2664.49,80.273L2662.96,76.745C2660.97,72.146 2657.52,69.811 2654.08,69.668C2649.22,69.466 2644.71,73.628 2644.66,81.149C2644.61,88.689 2648.78,92.184 2653.06,95.717C2659.4,100.947 2661.18,101.164 2664.65,103.143Z"/>
    </g>
</svg>
