<?xml version="1.0" encoding="UTF-8" standalone="no"?>
<!DOCTYPE svg PUBLIC "-//W3C//DTD SVG 1.1//EN" "http://www.w3.org/Graphics/SVG/1.1/DTD/svg11.dtd">
<svg width="100%" height="100%" viewBox="0 0 156 156" version="1.1" xmlns="http://www.w3.org/2000/svg" xmlns:xlink="http://www.w3.org/1999/xlink" xml:space="preserve" xmlns:serif="http://www.serif.com/" style="fill-rule:evenodd;clip-rule:evenodd;stroke-miterlimit:10;">
    <g>
        <g id="Ellipse-1" serif:id="Ellipse 1" transform="matrix(3.85275,0,0,3.85275,-9536.75,-261.887)">
            <path d="M2495.5,70C2501.85,70 2507,75.153 2507,81.5C2507,87.847 2501.85,93 2495.5,93C2489.15,93 2484,87.847 2484,81.5C2484,75.153 2489.15,70 2495.5,70ZM2495.5,71.531C2501,71.531 2505.47,75.998 2505.47,81.5C2505.47,87.002 2501,91.469 2495.5,91.469C2490,91.469 2485.53,87.002 2485.53,81.5C2485.53,75.998 2490,71.531 2495.5,71.531Z"/>
        </g>
        <g id="Shape-1" serif:id="Shape 1" transform="matrix(3.85275,0,0,3.85275,-9538.67,-261.887)">
            <path d="M2516,106L2476,106" style="fill:none;stroke:black;stroke-width:1.53px;"/>
        </g>
    </g>
</svg>
