<?xml version="1.0" encoding="UTF-8" standalone="no"?>
<!DOCTYPE svg PUBLIC "-//W3C//DTD SVG 1.1//EN" "http://www.w3.org/Graphics/SVG/1.1/DTD/svg11.dtd">
<svg width="100%" height="100%" viewBox="0 0 156 156" version="1.1" xmlns="http://www.w3.org/2000/svg" xmlns:xlink="http://www.w3.org/1999/xlink" xml:space="preserve" xmlns:serif="http://www.serif.com/" style="fill-rule:evenodd;clip-rule:evenodd;stroke-miterlimit:10;">
    <g>
        <g id="Rounded-Rectangle-1" serif:id="Rounded Rectangle 1" transform="matrix(4.00901,0,0,4.00901,-10258.4,-273.522)">
            <path d="M2593,84C2594.12,85.394 2595,85.895 2595,87L2595,104C2595,105.105 2594.11,106 2593,106L2564,106C2562.89,106 2562,106.105 2562,105L2562,87C2562,85.895 2563.01,84.055 2564,83" style="fill:none;stroke:black;stroke-width:1.46px;"/>
        </g>
        <g id="Rounded-Rectangle-1-copy" serif:id="Rounded Rectangle 1 copy" transform="matrix(4.00901,0,0,4.00901,-10258.4,-273.522)">
            <path d="M2563.24,83.702L2577.09,69.853C2577.87,69.072 2579.13,69.072 2579.91,69.853L2593.76,84.702" style="fill:none;stroke:black;stroke-width:1.46px;"/>
        </g>
        <g id="Shape-2" serif:id="Shape 2" transform="matrix(4.00901,0,0,4.00901,-10258.4,-273.522)">
            <path d="M2592,71.281L2592,78" style="fill:none;stroke:black;stroke-width:1.46px;"/>
        </g>
    </g>
</svg>
