<svg xmlns="http://www.w3.org/2000/svg" width="109" height="26" viewBox="0 0 109 26"><defs><style>.a{font-size:26px;font-family:AgeoPersonalUse-Light, Ageo Personal Use;font-weight:300;}.b{fill:none;stroke:#000;stroke-linecap:round;stroke-linejoin:round;stroke-miterlimit:1.5;stroke-width:1.2px;fill-rule:evenodd;}</style></defs><g transform="translate(-21.618 -52.607)"><g transform="translate(93.663 52.607)"><text class="a" transform="translate(0 20)"><tspan x="0" y="0">a</tspan></text></g><g transform="translate(84.137 53.338)"><g transform="translate(0 7.392)"><path d="M10.611-1.347c.132,0,.212-.053.212-.212v-.583a.2.2,0,0,0-.212-.212H3.192l7.445-10.281c.212-.265.106-.45-.212-.45H1.894a.2.2,0,0,0-.212.212v.583c0,.159.079.212.212.212H8.942L1.5-1.77c-.185.265-.053.424.238.424Z" transform="translate(-1.411 13.084)"/></g><g transform="translate(26.052 7.154)"><path d="M8.484-11.946a.2.2,0,0,0,.106.026c.079,0,.106-.053.132-.132l.238-.715a.189.189,0,0,0-.159-.265,7.249,7.249,0,0,0-1.934-.318,4.206,4.206,0,0,0-3.5,2.12L3.29-12.9a.232.232,0,0,0-.238-.212H2.575c-.132,0-.212.053-.212.212V-1.586a.2.2,0,0,0,.212.212h.689c.132,0,.185-.079.185-.212V-9.535a3.671,3.671,0,0,1,3.233-2.729A5.049,5.049,0,0,1,8.484-11.946Z" transform="translate(-2.363 13.35)"/></g><g transform="translate(34.186 0)"><path d="M7.137-1.93A5.476,5.476,0,0,0,12.33-4.977l.185,2.57a.232.232,0,0,0,.238.212h.45c.132,0,.212-.053.212-.212v-18.68c0-.159-.053-.238-.212-.238h-.662c-.132,0-.212.079-.212.238v9.91A5.456,5.456,0,0,0,7.137-14.2,5.744,5.744,0,0,0,1.122-8.077,5.765,5.765,0,0,0,7.137-1.93ZM12.33-8.1A4.847,4.847,0,0,1,7.217-3.016,4.77,4.77,0,0,1,2.209-8.077a4.749,4.749,0,0,1,5.008-5.034A4.813,4.813,0,0,1,12.33-8.1Z" transform="translate(-1.122 21.325)"/></g></g><g transform="translate(21.618 60.478)"><g transform="translate(0 0)"><path d="M7.227-11.283l-.875.518A1.809,1.809,0,0,0,5.4-11.834a2.639,2.639,0,0,0-1.085-.259,2.061,2.061,0,0,0-1.523.518,1.7,1.7,0,0,0-.5,1.215A1.651,1.651,0,0,0,2.66-9.291a2.879,2.879,0,0,0,.81.68c.308.162.761.389,1.393.68A11.673,11.673,0,0,1,6.4-7.1a3.234,3.234,0,0,1,1,1.037,2.855,2.855,0,0,1,.4,1.587A3.655,3.655,0,0,1,7.389-2.8a3.417,3.417,0,0,1-1.263,1.28,3.678,3.678,0,0,1-1.96.5,3.374,3.374,0,0,1-2.4-.794A5.117,5.117,0,0,1,.506-3.557l1.037-.518A3.79,3.79,0,0,0,2.5-2.585a2.408,2.408,0,0,0,1.766.664,2.319,2.319,0,0,0,1.2-.308,2.187,2.187,0,0,0,.858-.858,2.732,2.732,0,0,0,.324-1.328,2.058,2.058,0,0,0-.162-.875,2.022,2.022,0,0,0-.454-.664,3.82,3.82,0,0,0-.745-.535,13,13,0,0,0-1.182-.6A8.5,8.5,0,0,1,1.9-8.481a2.515,2.515,0,0,1-.745-1.847,3,3,0,0,1,.243-1.15,2.473,2.473,0,0,1,.956-1.069A3.406,3.406,0,0,1,4.263-13,2.937,2.937,0,0,1,7.227-11.283Z" transform="translate(-0.506 13)"/></g><g transform="translate(8.993)"><g transform="translate(0 0.324)"><path d="M3.228-1.3V-11.732H.2v-.907H7.358v.907H4.329V-1.3Z" transform="translate(-0.199 12.639)"/></g><g transform="translate(8.586 0.324)"><path d="M1.39-12.639h1.1v7.273a4.139,4.139,0,0,0,.4,1.96A2.653,2.653,0,0,0,3.949-2.24a3.051,3.051,0,0,0,1.474.356A2.927,2.927,0,0,0,6.865-2.24,2.645,2.645,0,0,0,7.934-3.39a4.208,4.208,0,0,0,.4-1.976v-7.273h1.1v7.111c0,1.782-.421,2.98-1.247,3.612a4.506,4.506,0,0,1-2.77.939,5.069,5.069,0,0,1-1.814-.34A3.372,3.372,0,0,1,2.054-2.661,5.286,5.286,0,0,1,1.39-5.528Z" transform="translate(-1.39 12.639)"/></g><g transform="translate(19.307 0.324)"><path d="M1.589-1.3V-12.639H4.407a6.8,6.8,0,0,1,3.45.81A5.179,5.179,0,0,1,9.931-9.723a6.005,6.005,0,0,1,.664,2.754,6.088,6.088,0,0,1-.664,2.786A5.1,5.1,0,0,1,7.873-2.094,6.9,6.9,0,0,1,4.407-1.3Zm1.1-.907h1.6a5.822,5.822,0,0,0,3-.68A3.932,3.932,0,0,0,8.943-4.654,5.549,5.549,0,0,0,9.428-6.97,5.121,5.121,0,0,0,9.04-9.027a3.941,3.941,0,0,0-1.1-1.49A4.769,4.769,0,0,0,6.3-11.424a6.214,6.214,0,0,0-2.008-.308H2.69Z" transform="translate(-1.589 12.639)"/></g><g transform="translate(30.645 0.324)"><rect width="1.101" height="11.338" transform="translate(0)"/></g><g transform="translate(34.077)"><path d="M1.011-7.007a6.438,6.438,0,0,1,.421-2.3,5.9,5.9,0,0,1,1.247-1.927,5.607,5.607,0,0,1,1.944-1.3A6.6,6.6,0,0,1,7.134-13a6.517,6.517,0,0,1,2.494.47,5.607,5.607,0,0,1,1.944,1.3,5.852,5.852,0,0,1,1.263,1.927,6.438,6.438,0,0,1,.421,2.3,6.115,6.115,0,0,1-.437,2.3,5.564,5.564,0,0,1-1.247,1.927,5.607,5.607,0,0,1-1.944,1.3,6.577,6.577,0,0,1-2.494.47,6.661,6.661,0,0,1-2.511-.47,5.607,5.607,0,0,1-1.944-1.3A5.606,5.606,0,0,1,1.448-4.707,6.115,6.115,0,0,1,1.011-7.007Zm1.166,0A5.4,5.4,0,0,0,2.517-5.1a4.851,4.851,0,0,0,1,1.636A4.665,4.665,0,0,0,5.109-2.326a4.862,4.862,0,0,0,2.025.4,4.939,4.939,0,0,0,2.041-.4,4.784,4.784,0,0,0,1.571-1.118,5.122,5.122,0,0,0,1-1.636,5.487,5.487,0,0,0,.34-1.927,5.577,5.577,0,0,0-.34-1.944,5.229,5.229,0,0,0-1-1.62,4.784,4.784,0,0,0-1.571-1.118,4.939,4.939,0,0,0-2.041-.4,4.939,4.939,0,0,0-2.041.4,4.6,4.6,0,0,0-1.571,1.134,5.048,5.048,0,0,0-1,1.62A5.487,5.487,0,0,0,2.177-7.007Z" transform="translate(-1.011 13)"/></g></g></g><g transform="translate(92.913 66.333)"><path class="b" d="M220.471,253.39H236.9" transform="translate(-220.471 -253.39)"/></g></g></svg>