<?xml version="1.0" encoding="utf-8"?>
<!-- Generator: Adobe Illustrator 22.1.0, SVG Export Plug-In . SVG Version: 6.00 Build 0)  -->
<svg version="1.1" id="Ebene_1" xmlns="http://www.w3.org/2000/svg" xmlns:xlink="http://www.w3.org/1999/xlink" x="0px" y="0px"
	 viewBox="0 0 143.06 84.157" style="enable-background:new 0 0 143.06 84.157;" xml:space="preserve">
<metadata><?xpacket begin="﻿" id="W5M0MpCehiHzreSzNTczkc9d"?>
<x:xmpmeta xmlns:x="adobe:ns:meta/" x:xmptk="Adobe XMP Core 5.6-c143 79.161356, 2017/09/07-01:11:22        ">
   <rdf:RDF xmlns:rdf="http://www.w3.org/1999/02/22-rdf-syntax-ns#">
      <rdf:Description rdf:about=""/>
   </rdf:RDF>
</x:xmpmeta>
                                                                                                    
                                                                                                    
                                                                                                    
                                                                                                    
                                                                                                    
                                                                                                    
                                                                                                    
                                                                                                    
                                                                                                    
                                                                                                    
                                                                                                    
                                                                                                    
                                                                                                    
                                                                                                    
                                                                                                    
                                                                                                    
                                                                                                    
                                                                                                    
                                                                                                    
                                                                                                    
                           
<?xpacket end="w"?></metadata>
<style type="text/css">
	.st0{fill-rule:evenodd;clip-rule:evenodd;fill:#FFFFFF;stroke:#D9DADA;stroke-width:1.3275;}
	.st1{fill-rule:evenodd;clip-rule:evenodd;fill:#CD0C10;}
	.st2{fill-rule:evenodd;clip-rule:evenodd;fill:#FFFFFF;stroke:#FFFFFF;stroke-width:0.1119;stroke-miterlimit:3.8636;}
</style>
<path class="st0" d="M142.396,16.736v49.436h-37.794c-7.349,10.488-19.367,17.322-32.94,17.322
	c-13.528,0-25.495-6.783-32.848-17.206l-0.115-0.157H0.664V16.734h39.01C47.077,6.957,58.637,0.664,71.662,0.664
	c13.058,0,24.667,6.251,32.076,16.072C104.318,16.764,142.396,16.736,142.396,16.736z"/>
<path class="st1" d="M102.9,62.911c-6.655,10.418-18.159,17.3-31.232,17.3c-13.076,0-24.591-6.887-31.238-17.319
	c-0.023,0.006-36.609,0.006-36.609,0.006V20.088c0,0,37.394-0.017,37.388-0.001c6.745-9.762,17.88-16.143,30.459-16.143
	c12.591,0,23.726,6.364,30.477,16.145c-0.099-0.036,37.093,0,37.093,0v42.809C139.238,62.898,102.78,62.898,102.9,62.911z"/>
<path class="st2" d="M100.158,32.591c-1.01-0.559-2.842-0.992-4.929-0.955c-4.61,0.073-8.344,5.179-8.344,11.572
	c0,6.387,3.734,11.58,8.344,11.58c1.806,0,3.551-0.271,4.908-0.954l0.013-5.424c-0.639,0.53-1.365,0.832-2.157,0.832
	c-2.362,0-4.819-2.12-4.719-6.053c0.106-4.185,2.357-6.049,4.719-6.049c0.792,0,1.543,0.307,2.177,0.843
	C100.293,38.079,100.151,32.586,100.158,32.591z"/>
<rect x="41.949" y="25.895" class="st2" width="6.209" height="28.778"/>
<path class="st2" d="M110.268,54.673h6.21V41.636c0.692-1.646,1.5-2.409,2.483-2.409c1.223,0,1.789,1.016,1.789,3.251v12.194h6.214
	V39.944c0-4.936-1.942-7.934-5.404-7.934c-1.977,0-3.381,0.932-5.082,3.297v-2.912h-6.21V54.673z"/>
<rect x="101.743" y="32.395" class="st2" width="6.207" height="22.278"/>
<path class="st2" d="M101.532,27.899c0-1.872,1.483-3.389,3.311-3.389c1.831,0,3.314,1.517,3.314,3.389
	c0,1.867-1.483,3.389-3.314,3.389C103.016,31.288,101.532,29.766,101.532,27.899z"/>
<path class="st2" d="M80.051,40.135h-4.452v-0.853c0-1.339,0.975-2.422,2.214-2.422c1.233,0,2.238,1.082,2.238,2.422V40.135z
	 M85.54,47.814c-1.829,1.77-4.151,1.811-5.824,1.811c-2.393,0-4.304-2.152-4.335-4.433h10.304
	c0.692-7.722-2.558-13.042-7.878-13.163c-4.664-0.106-8.6,4.894-8.6,11.432c0,6.504,3.963,11.602,9.402,11.602
	c3.017,0,4.723-0.547,6.932-1.571V47.814z"/>
<path class="st2" d="M26.106,42.036l2.382-8.627l2.348,8.637L26.106,42.036z M15.269,54.673h7.085l1.938-6.859h7.981l1.968,6.859
	h7.077l-9.737-28.778h-6.572L15.269,54.673z"/>
<path class="st2" d="M56.507,32.395h-6.205v31.9h6.205V54.081c1.259,0.675,2.393,0.971,3.71,0.971c4.779,0,8.09-4.726,8.09-11.646
	c0-6.538-3.076-11.396-7.196-11.396c-1.728,0-3.046,0.721-4.604,2.535V32.395z M56.507,38.883c0.933-0.928,1.525-1.258,2.337-1.258
	c1.94,0,3.255,2.292,3.255,5.681c0,3.436-1.315,5.837-3.255,5.837c-0.687,0-1.435-0.273-2.337-0.93V38.883z"/>
</svg>
